<svg width="16" height="16" viewBox="0 0 16 16" fill="none" xmlns="http://www.w3.org/2000/svg">
<path fill-rule="evenodd" clip-rule="evenodd" d="M3.99967 1.9987C3.99967 1.63051 4.29815 1.33203 4.66634 1.33203C5.03453 1.33203 5.33301 1.63051 5.33301 1.9987V2.66536H10.6663V1.9987C10.6663 1.63051 10.9648 1.33203 11.333 1.33203C11.7012 1.33203 11.9997 1.63051 11.9997 1.9987V2.66536H12.6663C13.7709 2.66536 14.6663 3.5608 14.6663 4.66536V12.6654C14.6663 13.7699 13.7709 14.6654 12.6663 14.6654H3.33301C2.22844 14.6654 1.33301 13.7699 1.33301 12.6654V4.66536C1.33301 3.5608 2.22844 2.66536 3.33301 2.66536H3.99967V1.9987Z" fill="#2F384C"/>
<path fill-rule="evenodd" clip-rule="evenodd" d="M6.66667 8C6.29848 8 6 8.29848 6 8.66667C6 9.03486 6.29848 9.33333 6.66667 9.33333H11.3333C11.7015 9.33333 12 9.03486 12 8.66667C12 8.29848 11.7015 8 11.3333 8H6.66667ZM4.66667 10.6667C4.29848 10.6667 4 10.9651 4 11.3333C4 11.7015 4.29848 12 4.66667 12H8.66667C9.03486 12 9.33333 11.7015 9.33333 11.3333C9.33333 10.9651 9.03486 10.6667 8.66667 10.6667H4.66667Z" fill="#A7A7C7"/>
</svg>
