<svg width="16" height="17" viewBox="0 0 16 17" fill="none" xmlns="http://www.w3.org/2000/svg">
<path d="M8.01398 1.83594C4.14065 1.83594 1.33398 4.99594 1.33398 8.5026C1.33398 9.6226 1.66065 10.7759 2.23398 11.8293C2.34065 12.0026 2.35398 12.2226 2.28065 12.4293L1.83398 13.9226C1.73398 14.2826 2.04065 14.5493 2.38065 14.4426L3.72732 14.0426C4.09398 13.9226 4.38065 14.0759 4.72132 14.2826C5.69465 14.8559 6.90732 15.1493 8.00065 15.1493C11.3073 15.1493 14.6673 12.5959 14.6673 8.4826C14.6673 4.93594 11.8007 1.83594 8.01398 1.83594" fill="#2F384C"/>
<path fill-rule="evenodd" clip-rule="evenodd" d="M4.91388 9.36292C4.44721 9.36292 4.06055 8.97625 4.06055 8.50958C4.06055 8.03625 4.44055 7.65625 4.91388 7.65625C5.38721 7.65625 5.76721 8.03625 5.76721 8.50958C5.76721 8.97625 5.38721 9.35625 4.91388 9.36292ZM7.98745 9.363C7.51411 9.35633 7.13411 8.97633 7.13411 8.503C7.13411 8.03633 7.52078 7.64967 7.98745 7.65633C8.46078 7.65633 8.84078 8.03633 8.84078 8.50967C8.84078 8.97633 8.46078 9.363 7.98745 9.363ZM10.207 8.50958C10.207 8.97625 10.587 9.36292 11.0604 9.36292C11.5337 9.36292 11.9137 8.97625 11.9137 8.50958C11.9137 8.03625 11.5337 7.65625 11.0604 7.65625C10.587 7.65625 10.207 8.03625 10.207 8.50958Z" fill="#A7A7C7"/>
</svg>
