<svg width="16" height="16" viewBox="0 0 16 16" fill="none" xmlns="http://www.w3.org/2000/svg">
<path fill-rule="evenodd" clip-rule="evenodd" d="M0 8C0 3.58172 3.58172 0 8 0C12.4183 0 16 3.58172 16 8C16 12.4183 12.4183 16 8 16C3.58172 16 0 12.4183 0 8ZM8 2.32479C4.86567 2.32479 2.32479 4.86567 2.32479 8C2.32479 11.1343 4.86567 13.6752 8 13.6752C11.1343 13.6752 13.6752 11.1343 13.6752 8C13.6752 4.86567 11.1343 2.32479 8 2.32479Z" fill="white"/>
<path opacity="0.6" d="M7.8289 4C8.47087 4 8.99129 4.52042 8.99129 5.16239V7.27534L10.525 8.29779C11.0591 8.65389 11.2035 9.37558 10.8473 9.90974C10.4912 10.4439 9.76955 10.5882 9.2354 10.2321L7.18412 8.86461C6.86074 8.64902 6.6665 8.28609 6.6665 7.89744V5.16239C6.6665 4.52042 7.18692 4 7.8289 4Z" fill="white"/>
</svg>
