<svg width="16" height="16" viewBox="0 0 16 16" fill="none" xmlns="http://www.w3.org/2000/svg">
<path opacity="0.6" fill-rule="evenodd" clip-rule="evenodd" d="M2.99845 2.99991C3.44104 2.55732 4.15863 2.55732 4.60122 2.99991L12.6012 10.9999C13.0438 11.4425 13.0438 12.1601 12.6012 12.6027C12.1586 13.0453 11.441 13.0453 10.9984 12.6027L2.99845 4.60269C2.55586 4.1601 2.55586 3.44251 2.99845 2.99991Z" fill="white"/>
<path fill-rule="evenodd" clip-rule="evenodd" d="M8 2.32479C4.86567 2.32479 2.32479 4.86567 2.32479 8C2.32479 11.1343 4.86567 13.6752 8 13.6752C11.1343 13.6752 13.6752 11.1343 13.6752 8C13.6752 4.86567 11.1343 2.32479 8 2.32479ZM0 8C0 3.58172 3.58172 0 8 0C12.4183 0 16 3.58172 16 8C16 12.4183 12.4183 16 8 16C3.58172 16 0 12.4183 0 8Z" fill="white"/>
</svg>
