<svg width="16" height="16" viewBox="0 0 16 16" fill="none" xmlns="http://www.w3.org/2000/svg">
<path fill-rule="evenodd" clip-rule="evenodd" d="M14.857 6.85547C15.4882 6.85547 15.9999 7.36714 15.9999 7.99833C15.9999 12.4166 12.4181 15.9983 7.99986 15.9983C5.83116 15.9983 4.06346 15.0516 2.857 14.137V14.284C2.857 14.9152 2.34533 15.4269 1.71415 15.4269C1.08296 15.4269 0.571289 14.9152 0.571289 14.284V11.4269C0.571289 10.7957 1.08296 10.284 1.71415 10.284H4.57129C5.20247 10.284 5.71415 10.7957 5.71415 11.4269C5.71415 12.0514 5.21317 12.559 4.59115 12.5696C5.51815 13.2003 6.68044 13.7126 7.99986 13.7126C11.1558 13.7126 13.7141 11.1542 13.7141 7.99833C13.7141 7.36714 14.2258 6.85547 14.857 6.85547Z" fill="white" fill-opacity="0.6"/>
<path fill-rule="evenodd" clip-rule="evenodd" d="M0 8C0 3.58416 3.55686 0 8 0C10.2852 0 11.9738 0.759912 13.1461 1.62709C13.1907 1.03664 13.6839 0.571429 14.2857 0.571429C14.9169 0.571429 15.4286 1.0831 15.4286 1.71429V4.57143C15.4286 5.20261 14.9169 5.71429 14.2857 5.71429H11.4286C10.7974 5.71429 10.2857 5.20261 10.2857 4.57143C10.2857 3.94025 10.7974 3.42857 11.4286 3.42857H11.7377C10.9065 2.82654 9.69621 2.28571 8 2.28571C4.82409 2.28571 2.28571 4.84165 2.28571 8C2.28571 8.63118 1.77404 9.14286 1.14286 9.14286C0.511675 9.14286 0 8.63118 0 8Z" fill="white"/>
</svg>
