<svg width="16" height="16" viewBox="0 0 16 16" fill="none" xmlns="http://www.w3.org/2000/svg">
<path d="M8.00242 0.832031C11.3978 0.832031 14.2417 3.19236 14.983 6.36189C15.0574 6.67973 15.0521 7.00978 15.0002 7.33203L7.33351 14.9987C7.01129 15.0506 6.68127 15.0558 6.36347 14.9815C3.19391 14.2402 0.833566 11.3963 0.833567 8.00089C0.833567 4.04164 4.04317 0.832031 8.00242 0.832031Z" fill="#2F384C"/>
<path d="M15 7.33464C14.6414 7.16469 13.9285 6.90201 13.533 6.81089C13.1271 6.71738 12.7043 6.66797 12.27 6.66797C9.17535 6.66797 6.66667 9.17666 6.66667 12.2713C6.66667 12.7056 6.71608 13.1284 6.80959 13.5343C6.90071 13.9298 7.16339 14.6427 7.33333 15.0013L15 7.33464Z" fill="#A7A7C7"/>
</svg>
