<svg width="16" height="16" viewBox="0 0 16 16" fill="none" xmlns="http://www.w3.org/2000/svg">
<path fill-rule="evenodd" clip-rule="evenodd" d="M0.88688 8.44057C1.01037 8.19358 1.31071 8.09346 1.5577 8.21696L5.3622 10.1192C6.43758 10.6569 6.88995 10.878 7.35537 10.9654C7.78191 11.0454 8.21961 11.0454 8.64615 10.9654C9.11158 10.878 9.56394 10.6569 10.6393 10.1192L14.4438 8.21696C14.6908 8.09346 14.9911 8.19358 15.1146 8.44057C15.2381 8.68755 15.138 8.98789 14.891 9.11139L11.0865 11.0136C11.0615 11.0262 11.0367 11.0385 11.0122 11.0508C10.0338 11.5401 9.45037 11.8319 8.83055 11.9482C8.28214 12.0511 7.71938 12.0511 7.17097 11.9482C6.55115 11.8319 5.96775 11.5401 4.98933 11.0508C4.9648 11.0385 4.94002 11.0262 4.91499 11.0136L1.11049 9.11139C0.863498 8.98789 0.763386 8.68755 0.88688 8.44057ZM0.88688 11.7739C1.01037 11.5269 1.31071 11.4268 1.5577 11.5503L5.3622 13.4525C6.43758 13.9902 6.88995 14.2114 7.35537 14.2987C7.78191 14.3787 8.21961 14.3787 8.64615 14.2987C9.11158 14.2114 9.56394 13.9902 10.6393 13.4525L14.4438 11.5503C14.6908 11.4268 14.9911 11.5269 15.1146 11.7739C15.2381 12.0209 15.138 12.3212 14.891 12.4447L11.0865 14.347C11.0615 14.3595 11.0367 14.3719 11.0122 14.3841C10.0338 14.8735 9.45037 15.1652 8.83055 15.2815C8.28214 15.3844 7.71938 15.3844 7.17097 15.2815C6.55115 15.1652 5.96775 14.8735 4.98933 14.3841C4.9648 14.3719 4.94002 14.3595 4.91499 14.347L1.11049 12.4447C0.863498 12.3212 0.763386 12.0209 0.88688 11.7739Z" fill="#A7A7C7"/>
<path d="M6.09156 1.28609C6.7912 0.936268 7.14102 0.761358 7.50795 0.692517C7.83293 0.631546 8.16642 0.631546 8.4914 0.692517C8.85833 0.761358 9.20815 0.936268 9.90779 1.28609L12.8501 2.75725C14.0784 3.3714 14.6925 3.67847 14.8896 4.094C15.0611 4.4556 15.0611 4.87512 14.8896 5.23673C14.6925 5.65226 14.0784 5.95933 12.8501 6.57348L9.90779 8.04464C9.20815 8.39446 8.85833 8.56937 8.4914 8.63821C8.16642 8.69918 7.83293 8.69918 7.50795 8.63821C7.14102 8.56937 6.7912 8.39446 6.09156 8.04464L3.14923 6.57348C1.92095 5.95933 1.3068 5.65226 1.10973 5.23673C0.938223 4.87512 0.938223 4.4556 1.10973 4.094C1.3068 3.67847 1.92095 3.3714 3.14923 2.75725L6.09156 1.28609Z" fill="#2F384C"/>
</svg>
