<svg width="14" height="14" viewBox="0 0 14 14" fill="none" xmlns="http://www.w3.org/2000/svg">
<path d="M8.89582 6.88342C9.18143 6.70949 9.42247 6.47124 9.5997 6.18767C9.77694 5.90409 9.88547 5.58303 9.91665 5.25008C9.92206 4.94901 9.8681 4.64983 9.75787 4.36962C9.64763 4.0894 9.48327 3.83365 9.27417 3.61697C9.06508 3.4003 8.81534 3.22693 8.53923 3.10678C8.26313 2.98664 7.96605 2.92206 7.66498 2.91675H3.87915V11.0834H7.96248C8.24899 11.0804 8.53209 11.0209 8.79561 10.9085C9.05914 10.796 9.29793 10.6327 9.49836 10.428C9.69878 10.2232 9.85691 9.98097 9.96371 9.7151C10.0705 9.44923 10.1239 9.16492 10.1208 8.87842V8.80842C10.121 8.40423 10.0059 8.00838 9.78886 7.66739C9.57186 7.32639 9.26205 7.05442 8.89582 6.88342ZM5.04582 4.08341H7.49582C7.74442 4.07572 7.98942 4.14425 8.19796 4.2798C8.4065 4.41534 8.56859 4.61143 8.66248 4.84175C8.75749 5.14962 8.72676 5.48259 8.57701 5.76788C8.42727 6.05317 8.17067 6.26758 7.86332 6.36425C7.74396 6.39923 7.6202 6.41691 7.49582 6.41675H5.04582V4.08341ZM7.72915 9.91675H5.04582V7.58342H7.72915C7.97775 7.57572 8.22276 7.64425 8.43129 7.7798C8.63983 7.91535 8.80192 8.11143 8.89582 8.34175C8.99083 8.64962 8.9601 8.98259 8.81035 9.26788C8.6606 9.55317 8.40401 9.76758 8.09665 9.86425C7.97729 9.89923 7.85353 9.91691 7.72915 9.91675Z" fill="white" fill-opacity="0.6"/>
</svg>
