<svg width="14" height="14" viewBox="0 0 14 14" fill="none" xmlns="http://www.w3.org/2000/svg">
<path d="M6.85999 5.25008H8.02666L6.74333 11.0834H5.57666L6.85999 5.25008ZM7.83999 2.91675C7.72462 2.91675 7.61184 2.95096 7.51591 3.01506C7.41998 3.07915 7.34521 3.17026 7.30106 3.27685C7.25691 3.38344 7.24536 3.50073 7.26787 3.61388C7.29038 3.72704 7.34593 3.83098 7.42751 3.91256C7.50909 3.99414 7.61303 4.0497 7.72619 4.07221C7.83935 4.09471 7.95663 4.08316 8.06322 4.03901C8.16981 3.99486 8.26092 3.92009 8.32502 3.82416C8.38911 3.72824 8.42333 3.61545 8.42333 3.50008C8.42333 3.34537 8.36187 3.197 8.25247 3.0876C8.14308 2.97821 7.9947 2.91675 7.83999 2.91675Z" fill="white" fill-opacity="0.6"/>
</svg>
