<svg width="14" height="14" viewBox="0 0 14 14" fill="none" xmlns="http://www.w3.org/2000/svg">
<path d="M1.75 7.1183H12.25V7.9933H9.70329C9.84146 8.28335 9.9112 8.60125 9.90712 8.9225C9.9153 9.22728 9.84988 9.52955 9.71643 9.80369C9.58297 10.0778 9.38541 10.3158 9.14047 10.4973C8.55045 10.9125 7.83869 11.1187 7.11813 11.0833C6.59164 11.0868 6.07028 10.9797 5.58784 10.7688C5.14726 10.5861 4.76535 10.2858 4.4838 9.90074C4.22457 9.53314 4.08778 9.09318 4.09288 8.64339V8.57726H4.26043V8.57661H4.45963V8.57726H5.26167V8.64337C5.25253 8.84835 5.29306 9.05249 5.37981 9.23843C5.46656 9.42437 5.59696 9.58659 5.75991 9.71127C6.15507 9.99262 6.63367 10.1322 7.11812 10.1075C7.54578 10.1355 7.97094 10.0236 8.3295 9.78889C8.46243 9.6906 8.56923 9.56122 8.64055 9.41207C8.71187 9.26293 8.74553 9.09858 8.7386 8.9334C8.74789 8.77383 8.71842 8.61437 8.6527 8.46867C8.58697 8.32296 8.48695 8.19533 8.36118 8.09668C8.30964 8.05933 8.25611 8.02481 8.20082 7.99328H1.75V7.1183ZM9.53443 4.11814C9.28853 3.73607 8.9408 3.43027 8.53043 3.23521C8.07296 3.01728 7.57125 2.90822 7.06459 2.91659C6.3581 2.88627 5.66348 3.10561 5.10253 3.53616C4.86171 3.72216 4.66745 3.96162 4.53511 4.23562C4.40278 4.50962 4.33599 4.81065 4.34003 5.11491C4.338 5.40325 4.40218 5.68821 4.52763 5.94783H6.04237C5.99373 5.91653 5.93423 5.88613 5.89496 5.85412C5.77627 5.76657 5.67993 5.65224 5.61375 5.52043C5.54758 5.38863 5.51345 5.24306 5.51414 5.09558C5.50534 4.92722 5.53725 4.75922 5.60715 4.60581C5.67705 4.4524 5.7829 4.3181 5.91572 4.21428C6.25178 3.98122 6.65635 3.86774 7.06459 3.89203C7.50846 3.86381 7.94679 4.00299 8.29309 4.2821C8.43791 4.41848 8.55132 4.58474 8.62546 4.76933C8.6996 4.95393 8.73268 5.15244 8.72242 5.35111V5.41726H9.89094V5.35111C9.89289 4.91442 9.76913 4.4864 9.53443 4.11814Z" fill="white" fill-opacity="0.6"/>
</svg>
