<svg width="14" height="14" viewBox="0 0 14 14" fill="none" xmlns="http://www.w3.org/2000/svg">
<path d="M11.0833 11.6667V12.8334H2.91663V11.6667H11.0833ZM9.33329 7.70883C9.31409 8.09382 9.1998 8.46806 9.00064 8.7981C8.80149 9.12813 8.52367 9.40369 8.19201 9.60014C7.86036 9.79659 7.4852 9.90781 7.10007 9.92387C6.71493 9.93993 6.33182 9.86032 5.98496 9.69217C5.58517 9.51921 5.24611 9.23082 5.01124 8.86397C4.77637 8.49711 4.65637 8.06848 4.66663 7.633V2.91966H3.49996V7.70883C3.51969 8.25799 3.66846 8.79478 3.9342 9.27576C4.19995 9.75673 4.57521 10.1684 5.02962 10.4774C5.48402 10.7864 6.0048 10.984 6.54979 11.0544C7.09478 11.1247 7.64867 11.0657 8.16663 10.8822C8.85561 10.6525 9.45338 10.2091 9.87301 9.61635C10.2926 9.02361 10.5123 8.31247 10.5 7.58633V2.91966H9.33329V7.70883ZM9.33329 2.91675H10.5H9.33329ZM4.66663 2.91675H3.49996H4.66663Z" fill="white" fill-opacity="0.6"/>
</svg>
