<svg width="14" height="14" viewBox="0 0 14 14" fill="none" xmlns="http://www.w3.org/2000/svg">
<path d="M2.33337 6.12492C1.86671 6.12492 1.45837 6.53325 1.45837 6.99992C1.45837 7.46658 1.86671 7.87492 2.33337 7.87492C2.80004 7.87492 3.20837 7.46658 3.20837 6.99992C3.20837 6.53325 2.80004 6.12492 2.33337 6.12492ZM2.33337 3.20825C1.86671 3.20825 1.45837 3.61659 1.45837 4.08325C1.45837 4.54992 1.86671 4.95825 2.33337 4.95825C2.80004 4.95825 3.20837 4.54992 3.20837 4.08325C3.20837 3.61659 2.80004 3.20825 2.33337 3.20825ZM2.33337 9.04158C1.86671 9.04158 1.45837 9.44992 1.45837 9.91658C1.45837 10.3833 1.86671 10.7916 2.33337 10.7916C2.80004 10.7916 3.20837 10.3833 3.20837 9.91658C3.20837 9.44992 2.80004 9.04158 2.33337 9.04158ZM4.37504 3.49992V4.66659H12.5417V3.49992H4.37504ZM4.37504 10.4999H12.5417V9.33325H4.37504V10.4999ZM4.37504 7.58325H12.5417V6.41658H4.37504V7.58325Z" fill="white" fill-opacity="0.6"/>
</svg>
