<svg width="14" height="14" viewBox="0 0 14 14" fill="white" xmlns="http://www.w3.org/2000/svg">
<path d="M7 14C8.38542 14 9.1875 13.1674 9.1875 11.7162V9.07562H11.7517C13.1736 9.07562 14 8.31436 14 7.00595C14 5.69754 13.1858 4.93628 11.776 4.93628H9.1875V2.28377C9.1875 0.832625 8.38542 0 7 0C5.62674 0 4.8125 0.832625 4.8125 2.28377V4.93628H2.21181C0.802083 4.93628 0 5.69754 0 7.00595C0 8.31436 0.802083 9.07562 2.21181 9.07562H4.8125V11.7043C4.8125 13.1674 5.61458 14 7 14Z" fill="inherit"/>
</svg>
