<svg width="24" height="25" viewBox="0 0 24 25" fill="none" xmlns="http://www.w3.org/2000/svg">
<path fill-rule="evenodd" clip-rule="evenodd" d="M7.34686 1.47098C6.57943 3.37664 7.01886 8.31315 8.14286 10.4127C9.59886 13.1326 9.58514 14.9255 8.08743 17.8747C7.428 19.1725 6.75143 21.2105 6.58343 22.4038C6.124 25.6683 7.64971 25.2228 9.20914 21.6375C9.91143 20.0227 11.0257 18.2456 11.6857 17.6889L12.8851 16.6759L12.4531 19.3991C11.7634 23.7452 11.7931 24.3007 12.7143 24.3007C13.8469 24.3007 16.0971 18.0016 16.1189 14.7697C16.1286 13.4218 15.7817 11.6724 15.3497 10.8827C14.6297 9.56744 14.7011 9.24392 16.1943 7.05669C17.0909 5.7425 17.8966 4.08738 17.984 3.37881C18.2709 1.05161 16.7994 1.57446 15.3411 4.31775C13.8434 7.13458 12.6977 7.93082 10.9189 7.39273C9.32057 6.9091 8.652 5.2567 9.06343 2.80641C9.35771 1.04944 9.25771 0.609375 8.56286 0.609375C8.08457 0.609375 7.53771 0.997151 7.34686 1.47098ZM10.1834 2.55425C9.68971 3.02535 9.28571 3.72248 9.28571 4.10372C9.28571 4.92665 10.1834 6.554 12.004 6.6003C12.8829 6.6003 14.4286 5.03775 14.4286 4.14946C14.4286 3.19582 12.8577 1.69863 11.8571 1.69863C11.4309 1.69863 10.6777 2.08369 10.1834 2.55425ZM4.42857 4.42178C4.62286 4.72132 4.89486 4.96641 5.03371 4.96641C5.17257 4.96641 5.28571 4.72132 5.28571 4.42178C5.28571 4.12223 5.01314 3.87715 4.68057 3.87715C4.348 3.87715 4.23429 4.12223 4.42857 4.42178ZM18.7446 6.554C18.5606 6.83775 18.6537 7.213 18.9514 7.38837C19.2491 7.56374 19.6429 7.47497 19.8269 7.19122C20.0109 6.90747 19.9177 6.53222 19.62 6.35685C19.3223 6.18148 18.9286 6.27025 18.7446 6.554ZM3 9.05113C3 9.55055 3.27657 9.87079 3.61429 9.7635C3.952 9.65621 4.22857 9.33597 4.22857 9.05113C4.22857 8.76628 3.952 8.44604 3.61429 8.33875C3.27657 8.23146 3 8.5517 3 9.05113ZM19 9.86807C19 10.1676 19.2571 10.4127 19.5714 10.4127C19.8857 10.4127 20.1429 10.1676 20.1429 9.86807C20.1429 9.56852 19.8857 9.32344 19.5714 9.32344C19.2571 9.32344 19 9.56852 19 9.86807ZM7.10971 13.1767C7.22229 13.4986 7.55829 13.7622 7.85714 13.7622C8.156 13.7622 8.492 13.4986 8.60457 13.1767C8.71714 12.8548 8.38114 12.5912 7.85714 12.5912C7.33314 12.5912 6.99714 12.8548 7.10971 13.1767ZM17.2857 13.6805C17.2857 13.98 17.5429 14.2251 17.8571 14.2251C18.1714 14.2251 18.4286 13.98 18.4286 13.6805C18.4286 13.3809 18.1714 13.1358 17.8571 13.1358C17.5429 13.1358 17.2857 13.3809 17.2857 13.6805ZM4.14286 16.9482C4.14286 17.2478 4.41543 17.4929 4.748 17.4929C5.08057 17.4929 5.19429 17.2478 5 16.9482C4.80571 16.6487 4.53371 16.4036 4.39486 16.4036C4.256 16.4036 4.14286 16.6487 4.14286 16.9482ZM17.6509 17.3262C17.0074 17.9395 17.2594 18.5821 18.1429 18.5821C18.6143 18.5821 19 18.3518 19 18.0696C19 17.3829 18.1074 16.8911 17.6509 17.3262Z" fill="white"/>
</svg>
