<svg width="24" height="24" viewBox="0 0 24 24" fill="white" xmlns="http://www.w3.org/2000/svg">
<path fill-rule="evenodd" clip-rule="evenodd" d="M11.7878 22.5H11.7122C9.87495 22.5 8.44502 22.5 7.30249 22.3965C6.14182 22.2913 5.20433 22.0745 4.375 21.5957C3.34887 21.0032 2.49677 20.1511 1.90433 19.125C1.42552 18.2957 1.20874 17.3582 1.10354 16.1975C0.999992 15.055 0.999995 13.625 1 11.7878V11.7122C0.999995 9.87495 0.999992 8.44502 1.10354 7.30249C1.20874 6.14182 1.42552 5.20433 1.90433 4.375C2.49677 3.34887 3.34887 2.49677 4.375 1.90433C5.20433 1.42552 6.14182 1.20874 7.30249 1.10354C8.44502 0.999991 9.87494 0.999995 11.7121 1H14.9453L15 1L15 3.802C15 4.70048 14.9999 5.4497 15.0799 6.04448C15.1643 6.67227 15.35 7.23907 15.8055 7.69454C16.2609 8.15001 16.8277 8.33568 17.4555 8.42009C18.0503 8.50005 18.7995 8.50003 19.698 8.5L22.5 8.5L22.5 8.55482V11.7879C22.5 13.6251 22.5 15.055 22.3965 16.1975C22.2913 17.3582 22.0745 18.2957 21.5957 19.125C21.0032 20.1511 20.1511 21.0032 19.125 21.5957C18.2957 22.0745 17.3582 22.2913 16.1975 22.3965C15.055 22.5 13.625 22.5 11.7878 22.5ZM19.772 2.72538C18.8457 1.89448 17.7124 1.33966 16.5 1.11398V3.75C16.5 4.71401 16.5016 5.36157 16.5665 5.84461C16.6286 6.30607 16.7358 6.50357 16.8661 6.63388C16.9964 6.7642 17.1939 6.87142 17.6554 6.93346C18.1384 6.99841 18.786 7 19.75 7H22.386C22.1603 5.78763 21.6055 4.65426 20.7746 3.72799C20.6523 3.59161 20.5196 3.45895 20.2971 3.2364L20.2635 3.20288C20.041 2.98032 19.9084 2.84772 19.772 2.72538ZM8.84766 14.832C10.5273 14.832 11.457 13.8008 11.457 12.4609C11.457 11.9062 11.1562 11.5938 10.6289 11.5938H9.53906C9.16406 11.5938 8.92578 11.7891 8.92578 12.1445C8.92578 12.5 9.16797 12.6953 9.53906 12.6953H9.86328L9.85547 12.7734C9.80859 13.2266 9.42578 13.5273 8.88672 13.5273C8.16016 13.5273 7.6875 12.9141 7.6875 11.8867C7.6875 10.8828 8.10156 10.3047 8.80469 10.3047C9.20312 10.3047 9.47266 10.4531 9.73828 10.8086C9.94141 11.0781 10.1875 11.2031 10.5117 11.2031C10.9336 11.2031 11.2227 10.918 11.2227 10.5039C11.2227 10.3633 11.1914 10.2305 11.1094 10.0781C10.7773 9.48438 9.92578 9 8.79688 9C7.05859 9 6 10.0625 6 11.9102C6 13.7812 7.05859 14.832 8.84766 14.832ZM12.6214 14.832C13.1488 14.832 13.4495 14.5195 13.4495 13.9648V9.86719C13.4495 9.3125 13.1488 9 12.6214 9C12.0941 9 11.7933 9.3125 11.7933 9.86719V13.9648C11.7933 14.5195 12.0941 14.832 12.6214 14.832ZM15.567 13.9648C15.567 14.5195 15.2663 14.832 14.7389 14.832C14.2116 14.832 13.9108 14.5195 13.9108 13.9648V9.96484C13.9108 9.41016 14.2116 9.09766 14.7389 9.09766H17.2194C17.6647 9.09766 17.9498 9.33594 17.9498 9.75781C17.9498 10.1797 17.6569 10.418 17.2194 10.418H15.567V11.4961H17.0514C17.4655 11.4961 17.7311 11.7227 17.7311 12.1172C17.7311 12.5117 17.4733 12.7383 17.0514 12.7383H15.567V13.9648Z" fill="inherit"/>
</svg>
