<svg width="24" height="24" viewBox="0 0 24 24" fill="white" xmlns="http://www.w3.org/2000/svg">
<path fill-rule="evenodd" clip-rule="evenodd" d="M22.6169 10.957C21.7397 3.98825 14.2151 -0.0249773 7.78004 3.04392C3.41879 5.12377 1.14041 9.89472 2.29971 14.5197C3.32618 18.6146 6.90414 21.6665 11.2288 22.1359L11.4506 22.16L11.4517 20.7511C11.4527 19.6304 11.4674 19.2374 11.5239 18.8303C12.2494 13.6064 15.4986 11.1333 21.5233 11.2196C22.7809 11.2377 22.656 11.2677 22.6169 10.957ZM21.6159 12.8844C21.0681 12.8176 19.3848 12.9491 18.5094 13.1272C14.8887 13.8637 13.0674 16.4671 13.1293 20.8177C13.1388 21.485 12.6368 21.9056 17.5174 17.1417L21.8498 12.9129L21.6159 12.8844Z" fill="inherit"/>
</svg>
