<svg width="24" height="24" viewBox="0 0 24 24" fill="white" xmlns="http://www.w3.org/2000/svg">
<path fill-rule="evenodd" clip-rule="evenodd" d="M11.6426 2.89029C7.7037 3.4206 4.34166 3.87747 4.1714 3.90556C2.83991 4.12503 1.76559 5.19304 1.50525 6.55609C1.41812 7.01238 1.41915 16.5751 1.50641 17.0335C1.80022 18.5773 3.15895 19.7169 4.70565 19.7169C4.91864 19.7169 11.7552 18.8298 12.561 18.6976L12.7158 18.6722L12.7159 20.1386C12.7159 21.7744 12.7198 21.7995 13.0005 21.988C13.1647 22.0982 13.4436 22.1136 13.6196 22.0222C13.683 21.9892 14.6066 21.0762 15.672 19.9934L17.6092 18.0246L18.7433 17.8731C20.0273 17.7016 20.3605 17.6238 20.8038 17.3918C21.6128 16.9683 22.2073 16.233 22.4655 15.3368L22.5604 15.0072V9.79948V4.59177L22.4273 4.19756C22.0559 3.09814 21.1794 2.27403 20.0875 1.99788C19.4587 1.83887 19.4263 1.84227 11.6426 2.89029ZM12.0574 7.54083C15.0235 8.10645 15.7349 11.9887 13.1769 13.6507C11.0413 15.0383 8.09509 13.4284 8.09303 10.8726C8.09125 8.6864 9.93577 7.13624 12.0574 7.54083ZM4.9834 7.59763C5.3234 7.75283 5.30392 7.59498 5.32716 10.3785L5.3478 12.8494L6.48292 12.8702C7.46173 12.888 7.63167 12.9006 7.71687 12.9612C8.07763 13.218 8.05225 13.8107 7.67146 14.0196C7.54771 14.0876 7.40209 14.0943 6.04951 14.0943C4.35099 14.0943 4.36011 14.096 4.18171 13.7422L4.08884 13.558V10.8382C4.08884 9.19343 4.10477 8.06251 4.12913 7.97711C4.23707 7.59875 4.61653 7.4302 4.9834 7.59763ZM16.9951 7.62178C17.2439 7.78569 17.2338 7.67897 17.2563 10.3785L17.2769 12.8494L18.414 12.8702C19.6688 12.8931 19.7021 12.8999 19.8391 13.1663C19.9921 13.4639 19.8877 13.8444 19.6077 14.0098C19.3993 14.1328 16.5785 14.1414 16.3567 14.0196C16.0433 13.8477 16.0596 14.023 16.0594 10.8119L16.0593 7.94445L16.153 7.80345C16.3355 7.52871 16.7259 7.44452 16.9951 7.62178ZM11.1205 8.72495C9.69735 8.89985 8.89496 10.532 9.58776 11.8428C10.2804 13.1534 12.3057 13.2692 13.119 12.0448C14.1559 10.4838 12.9609 8.49871 11.1205 8.72495Z" fill="inherit"/>
</svg>
