<svg width="24" height="24" viewBox="0 0 24 24" fill="none" xmlns="http://www.w3.org/2000/svg">
<path fill-rule="evenodd" clip-rule="evenodd" d="M13.2571 2.00277L12.7528 1.94408C12.1334 1.87215 10.6354 1.98299 9.8183 2.16119C6.05978 2.98097 2.98271 6.05796 2.16065 9.81868C0.900895 15.5819 4.71235 21.0655 10.6258 21.9975C11.378 22.116 21.6373 22.107 21.7973 21.9876C21.8444 21.9524 21.8834 21.937 21.9156 21.9127C22.0881 21.7826 22.0684 21.3979 22.0684 16.384C22.0684 11.6646 22.0741 10.9731 21.951 10.3054C21.9236 10.1567 21.8898 10.0092 21.8482 9.81868C20.9516 5.71677 17.3995 2.48525 13.2571 2.00277ZM11.2688 16.1516H9.71612V10.0805H7.53613V8.81445H13.454V10.0805H11.2688V16.1516ZM16.1472 16.1974C16.0238 16.2109 15.8867 16.2177 15.7359 16.2177C15.088 16.2177 14.615 16.0957 14.3168 15.8516C14.0186 15.6041 13.8695 15.1991 13.8695 14.6364V11.7483H13.0571V10.6297H13.8695V9.29749H15.3862V10.6297H16.4711V11.7483H15.3862V14.3872C15.3862 14.6415 15.4428 14.8228 15.5559 14.9313C15.6724 15.0364 15.8507 15.0889 16.0906 15.0889C16.1729 15.0889 16.2414 15.0872 16.2963 15.0838C16.3545 15.077 16.4128 15.072 16.4711 15.0686V16.1618C16.382 16.1753 16.274 16.1872 16.1472 16.1974Z" fill="white"/>
</svg>
