<?xml version="1.0" encoding="UTF-8"?>
<svg width="18px" height="17px" viewBox="0 0 18 17" version="1.1" xmlns="http://www.w3.org/2000/svg" xmlns:xlink="http://www.w3.org/1999/xlink">
    <title>Add</title>
    <g id="Dashboard" stroke="none" stroke-width="1" fill="none" fill-rule="evenodd">
        <g id="Dashboard--Main-Screen---Desktop--Copy" transform="translate(-231.000000, -595.000000)" fill="#FFFFFF">
            <g id="Post-Stream" transform="translate(120.000000, 432.000000)">
                <g id="Add" transform="translate(111.825581, 163.000000)">
                    <g id="Plus">
                        <path d="M8.37209302,17 C9.29687442,17 10.0465116,16.23891 10.0465116,15.3 L10.0465116,10.2 L15.0697674,10.2 C15.9945488,10.2 16.744186,9.43891 16.744186,8.5 C16.744186,7.56109 15.9945488,6.8 15.0697674,6.8 L10.0465116,6.8 L10.0465116,1.7 C10.0465116,0.761124 9.29687442,0 8.37209302,0 C7.44731163,0 6.69767442,0.761124 6.69767442,1.7 L6.69767442,6.8 L1.6744186,6.8 C0.749670698,6.8 -8.52651283e-14,7.56109 -8.52651283e-14,8.5 C-8.52651283e-14,9.43891 0.749653953,10.2 1.6744186,10.2 L6.69767442,10.2 L6.69767442,15.3 C6.69767442,16.23891 7.44731163,17 8.37209302,17 Z"></path>
                    </g>
                </g>
            </g>
        </g>
    </g>
</svg>