<?xml version="1.0" encoding="UTF-8"?>
<svg width="36px" height="30px" viewBox="0 0 36 30" version="1.1" xmlns="http://www.w3.org/2000/svg" xmlns:xlink="http://www.w3.org/1999/xlink">
    <title>analytics</title>
    <g id="Dashboard" stroke="none" stroke-width="1" fill="none" fill-rule="evenodd">
        <g id="Dashboard--Main-Screen---Desktop--Copy" transform="translate(-22.000000, -192.000000)" fill="#FFFFFF">
            <g id="Menu-bar">
                <g id="stats" transform="translate(21.000000, 188.000000)">
                    <g id="Line-03-Up" transform="translate(1.583333, 4.750000)">
                        <path d="M0,3.16666667 C0,1.41776417 1.41776417,0 3.16666667,0 L31.6666667,0 C33.4156167,0 34.8333333,1.41776417 34.8333333,3.16666667 L34.8333333,25.3333333 C34.8333333,27.0822833 33.4156167,28.5 31.6666667,28.5 L3.16666667,28.5 C1.41776417,28.5 0,27.0822833 0,25.3333333 L0,3.16666667 Z" id="Path" fill-rule="nonzero" opacity="0.25"></path>
                        <path d="M31.4579833,5.53582417 C31.8918167,4.77658417 31.6280333,3.809405 30.868825,3.37555583 C30.1096167,2.94170667 29.1425167,3.20547417 28.708525,3.96471417 L23.5653833,12.9652833 C23.2135667,13.5810417 22.4948917,13.8877333 21.806775,13.7157833 L13.7946017,11.7127083 C11.7300775,11.1965417 9.57422667,12.1166167 8.5184125,13.9642083 L3.375255,22.9646667 C2.94140583,23.723875 3.20518917,24.6911333 3.96442917,25.1249667 C4.72366917,25.5588 5.69084833,25.2950167 6.1246975,24.5358083 L11.2678392,15.53535 C11.6197825,14.9194333 12.33841,14.6127417 13.0265742,14.78485 L21.0387,16.7877667 C23.1032083,17.3039333 25.259075,16.3840167 26.3148417,14.5362667 L31.4579833,5.53582417 Z" id="Path"></path>
                    </g>
                </g>
            </g>
        </g>
    </g>
</svg>