<svg width="25" height="24" viewBox="0 0 25 24" fill="none" xmlns="http://www.w3.org/2000/svg">
<g opacity="0.8">
<path fill-rule="evenodd" clip-rule="evenodd" d="M13.4393 3.93935C14.0251 3.35356 14.9749 3.35355 15.5607 3.93933L22.5607 10.9393C22.842 11.2206 23 11.6021 23 11.9999C23 12.3978 22.842 12.7793 22.5607 13.0606L15.5607 20.0606C14.9749 20.6464 14.0251 20.6464 13.4393 20.0606C12.8536 19.4748 12.8536 18.5251 13.4393 17.9393L17.8787 13.4999H3.5C2.67157 13.4999 2 12.8284 2 11.9999C2 11.1715 2.67157 10.4999 3.5 10.4999H17.8787L13.4393 6.06067C12.8536 5.47488 12.8536 4.52513 13.4393 3.93935Z" fill="white"/>
</g>
</svg>
