<svg width="16" height="16" viewBox="0 0 16 16" fill="none" xmlns="http://www.w3.org/2000/svg">
<path d="M7.95176 7.54017L13.3931 9.79929C13.4816 9.83531 13.5443 9.91349 13.5583 10.0055C13.5723 10.0974 13.5357 10.1898 13.4618 10.2491L7.84621 14.9462C7.74315 15.0324 7.59037 15.0324 7.48732 14.9462L1.86121 10.2491C1.78725 10.1898 1.75064 10.0974 1.76467 10.0055C1.7787 9.91349 1.84132 9.83531 1.92982 9.79929L7.37121 7.54017C7.5571 7.46578 7.76587 7.46578 7.95176 7.54017Z" fill="#D1A6FB"/>
<path d="M7.89342 0.432733L13.224 7.8694C13.2922 7.96916 13.2847 8.10043 13.2056 8.19234C13.1265 8.28425 12.9945 8.31503 12.8809 8.26807L7.96203 6.09584C7.77399 6.01428 7.55896 6.01428 7.37092 6.09584L2.45203 8.26807C2.3384 8.31503 2.20642 8.28425 2.12733 8.19234C2.04825 8.10043 2.04078 7.96916 2.10897 7.8694L7.43953 0.432733C7.49063 0.359964 7.5756 0.316406 7.66647 0.316406C7.75734 0.316406 7.84232 0.359964 7.89342 0.432733Z" fill="#BB69F7"/>
</svg>
