<svg width="50" height="50" viewBox="0 0 50 50" fill="none" xmlns="http://www.w3.org/2000/svg">
<path d="M24.849 23.575L41.8533 30.6347C42.1299 30.7473 42.3256 30.9916 42.3694 31.279C42.4133 31.5664 42.2989 31.8551 42.0678 32.0403L24.5191 46.7188C24.1971 46.9883 23.7197 46.9883 23.3976 46.7188L5.81603 32.0403C5.58491 31.8551 5.47051 31.5664 5.51435 31.279C5.55819 30.9916 5.7539 30.7473 6.03044 30.6347L23.0348 23.575C23.6157 23.3425 24.2681 23.3425 24.849 23.575Z" fill="#8B46FF"/>
<path d="M24.6676 1.35766L41.3256 24.5972C41.5387 24.909 41.5154 25.3192 41.2682 25.6064C41.021 25.8937 40.6086 25.9898 40.2535 25.8431L24.882 19.0549C24.2944 18.8 23.6224 18.8 23.0348 19.0549L7.66326 25.8431C7.30819 25.9898 6.89574 25.8937 6.64859 25.6064C6.40144 25.3192 6.37812 24.909 6.59121 24.5972L23.2492 1.35766C23.4089 1.13026 23.6744 0.994141 23.9584 0.994141C24.2424 0.994141 24.5079 1.13026 24.6676 1.35766Z" fill="#8B46FF"/>
</svg>
