<svg width="16" height="17" viewBox="0 0 16 17" fill="none" xmlns="http://www.w3.org/2000/svg">
<g opacity="0.4">
<path fill-rule="evenodd" clip-rule="evenodd" d="M10.9406 2.34444L10.9412 2.84419C12.7777 2.98812 13.9908 4.23949 13.9927 6.15853L14 11.7757C14.0026 13.868 12.6882 15.1554 10.5812 15.1587L5.43459 15.1654C3.3408 15.168 2.00988 13.85 2.00724 11.7517L2 6.20051C1.99737 4.26881 3.16768 3.02077 5.00411 2.85219L5.00346 2.35244C5.0028 2.05925 5.22001 1.8387 5.50963 1.8387C5.79924 1.83803 6.01645 2.05792 6.01711 2.35111L6.01777 2.81754L9.92759 2.81221L9.92693 2.34578C9.92627 2.05259 10.1435 1.8327 10.4331 1.83203C10.7161 1.83137 10.9399 2.05126 10.9406 2.34444ZM3.01432 6.40641L12.9797 6.39308V6.15986C12.9514 4.72725 12.2327 3.97562 10.9426 3.86368L10.9432 4.37676C10.9432 4.66328 10.7201 4.8905 10.437 4.8905C10.1474 4.89117 9.92956 4.66461 9.92956 4.37809L9.9289 3.83836L6.01908 3.84369L6.01974 4.38275C6.01974 4.66994 5.80319 4.8965 5.51357 4.8965C5.22396 4.89716 5.00609 4.67128 5.00609 4.38409L5.00543 3.87101C3.7219 3.99961 3.01168 4.7539 3.01366 6.19918L3.01432 6.40641ZM10.1599 9.43489V9.44222C10.1665 9.74873 10.4166 9.98128 10.7201 9.97462C11.0163 9.96729 11.2526 9.71342 11.246 9.4069C11.2322 9.11372 10.9946 8.87451 10.699 8.87517C10.3962 8.88183 10.1593 9.12838 10.1599 9.43489ZM10.7036 12.4267C10.4008 12.4201 10.1566 12.1675 10.156 11.861C10.1494 11.5545 10.3923 11.3006 10.6951 11.2933H10.7017C11.011 11.2933 11.2618 11.5458 11.2618 11.859C11.2625 12.1722 11.0123 12.4261 10.7036 12.4267ZM7.44808 9.44555C7.46124 9.75206 7.71202 9.99128 8.0148 9.97795C8.311 9.96396 8.5473 9.71075 8.53414 9.40424C8.5269 9.10439 8.28336 8.87117 7.98716 8.87184C7.68438 8.88517 7.44742 9.13904 7.44808 9.44555ZM8.01744 12.3967C7.71466 12.4101 7.46453 12.1709 7.45071 11.8643C7.45071 11.5578 7.68701 11.3046 7.98979 11.2906C8.28599 11.29 8.53019 11.5232 8.53677 11.8224C8.55059 12.1295 8.31364 12.3827 8.01744 12.3967ZM4.73622 9.46887C4.74938 9.77539 5.00016 10.0153 5.30294 10.0013C5.59914 9.98795 5.83544 9.73407 5.82162 9.42756C5.81504 9.12771 5.5715 8.8945 5.27464 8.89516C4.97186 8.90849 4.73556 9.16236 4.73622 9.46887ZM5.30558 12.4001C5.0028 12.4141 4.75267 12.1742 4.73885 11.8677C4.73819 11.5612 4.97515 11.3073 5.27793 11.294C5.57413 11.2933 5.81833 11.5265 5.82491 11.8264C5.83873 12.1329 5.60243 12.3867 5.30558 12.4001Z" fill="white"/>
</g>
</svg>
