<svg width="16" height="17" viewBox="0 0 16 17" fill="none" xmlns="http://www.w3.org/2000/svg">
<path fill-rule="evenodd" clip-rule="evenodd" d="M7.99992 15.1654C11.6818 15.1654 14.6666 12.1806 14.6666 8.4987C14.6666 4.8168 11.6818 1.83203 7.99992 1.83203C4.31802 1.83203 1.33325 4.8168 1.33325 8.4987C1.33325 12.1806 4.31802 15.1654 7.99992 15.1654ZM8.66659 5.16536C8.66659 4.79717 8.36811 4.4987 7.99992 4.4987C7.63173 4.4987 7.33325 4.79717 7.33325 5.16536V8.4987C7.33325 8.67551 7.40349 8.84508 7.52851 8.9701L9.19518 10.6368C9.45553 10.8971 9.87764 10.8971 10.138 10.6368C10.3983 10.3764 10.3983 9.95431 10.138 9.69396L8.66659 8.22256V5.16536Z" fill="white"/>
</svg>
