<svg width="48" height="48" viewBox="0 0 48 48" fill="none" xmlns="http://www.w3.org/2000/svg">
<g filter="url(#filter0_d)">
<path fill-rule="evenodd" clip-rule="evenodd" d="M4 22C4 10.96 12.98 2 24 2L24.5596 2.00768C35.3412 2.30432 44 11.1471 44 22C44 33.02 35.04 42 24 42C12.98 42 4 33.02 4 22Z" fill="#141833"/>
</g>
<path fill-rule="evenodd" clip-rule="evenodd" d="M31.2538 29.2245C32.0336 28.447 32.0336 27.1855 31.2538 26.4057L27.1712 22.3231L31.2538 18.2383C32.0336 17.4608 32.0336 16.1764 31.2538 15.3966C30.474 14.6145 29.2125 14.6145 28.4097 15.3966L24.3501 19.4768L20.2676 15.3966C19.4648 14.6145 18.2033 14.6145 17.4235 15.3966C16.6437 16.1764 16.6437 17.4608 17.4235 18.2383L21.5061 22.3231L17.4235 26.3828C16.6437 27.1855 16.6437 28.447 17.4235 29.2245C17.8134 29.6144 18.3409 29.8231 18.8455 29.8231C19.373 29.8231 19.8777 29.6144 20.2676 29.2245L24.3501 25.1672L28.4327 29.2245C28.8226 29.6396 29.3272 29.8231 29.8318 29.8231C30.3593 29.8231 30.8639 29.6144 31.2538 29.2245Z" fill="white"/>
<defs>
<filter id="filter0_d" x="0" y="0" width="48" height="48" filterUnits="userSpaceOnUse" color-interpolation-filters="sRGB">
<feFlood flood-opacity="0" result="BackgroundImageFix"/>
<feColorMatrix in="SourceAlpha" type="matrix" values="0 0 0 0 0 0 0 0 0 0 0 0 0 0 0 0 0 0 127 0" result="hardAlpha"/>
<feOffset dy="2"/>
<feGaussianBlur stdDeviation="2"/>
<feColorMatrix type="matrix" values="0 0 0 0 0 0 0 0 0 0 0 0 0 0 0 0 0 0 0.253621 0"/>
<feBlend mode="normal" in2="BackgroundImageFix" result="effect1_dropShadow"/>
<feBlend mode="normal" in="SourceGraphic" in2="effect1_dropShadow" result="shape"/>
</filter>
</defs>
</svg>
