<?xml version="1.0" encoding="UTF-8"?>
<svg width="38px" height="38px" viewBox="0 0 38 38" version="1.1" xmlns="http://www.w3.org/2000/svg" xmlns:xlink="http://www.w3.org/1999/xlink">
    <title>Cog</title>
    <g id="Dashboard" stroke="none" stroke-width="1" fill="none" fill-rule="evenodd">
        <g id="Dashboard--Main-Screen---Desktop--Copy" transform="translate(-21.000000, -885.000000)" fill="#FFFFFF">
            <g id="Menu-bar">
                <g id="Cog" transform="translate(20.854839, 885.000000)">
                    <g id="Shape">
                        <path d="M18.6711436,0 C16.6237798,0 14.9639044,1.65982146 14.9639044,3.70731707 C14.9639044,3.98228878 14.7773895,4.22111415 14.5134102,4.29807805 C13.4719888,4.60167024 12.4779469,5.0164078 11.544983,5.5285922 C11.3032847,5.66129561 11.0016762,5.6242039 10.8067086,5.4292361 C9.35891002,3.9814361 7.01156895,3.9814361 5.5637704,5.4292361 C4.11597185,6.8770361 4.11597185,9.22437951 5.5637704,10.6721795 C5.75873801,10.8671473 5.79581114,11.1687561 5.6631264,11.4104546 C5.15096106,12.3433824 4.73624245,13.3373698 4.43265056,14.3787366 C4.35568673,14.6427346 4.11682453,14.8292683 3.8418531,14.8292683 C1.79435954,14.8292683 0.134539732,16.4890341 0.134539732,18.5365854 C0.134539732,20.5841366 1.79435954,22.2439024 3.8418531,22.2439024 C4.11682453,22.2439024 4.35568673,22.4303805 4.43265056,22.6945268 C4.73624245,23.7357268 5.15096106,24.7298439 5.6631264,25.6627902 C5.79581114,25.904322 5.75873801,26.2060976 5.5637704,26.4009171 C4.11597185,27.8488098 4.11597185,30.1960976 5.5637704,31.6439902 C7.01156895,33.0916976 9.35891002,33.0916976 10.8067086,31.6439902 C11.0016762,31.4489854 11.3032847,31.4119122 11.544983,31.5446341 C12.4779469,32.0568 13.4719888,32.4714634 14.5134102,32.7750927 C14.7773895,32.8520195 14.9639044,33.0909561 14.9639044,33.3658537 C14.9639044,35.4134049 16.6237798,37.0731707 18.6711436,37.0731707 C20.7186928,37.0731707 22.378457,35.4134049 22.378457,33.3658537 C22.378457,33.0907707 22.5651202,32.8520195 22.8290809,32.7750927 C23.8704653,32.4714634 24.864396,32.0568 25.797156,31.5446341 C26.0388729,31.4119122 26.3404628,31.4489854 26.5354675,31.6439902 C27.9833587,33.0916976 30.3306442,33.0916976 31.77835,31.6439902 C33.2262413,30.1960976 33.2262413,27.8488098 31.77835,26.4009171 C31.5835307,26.2060976 31.5464576,25.904322 31.678994,25.6627902 C32.1911594,24.7298439 32.6060077,23.7357268 32.9096367,22.6945268 C32.9865635,22.4303805 33.2253144,22.2439024 33.5003971,22.2439024 C35.5477609,22.2439024 37.2077105,20.5841366 37.2077105,18.5365854 C37.2077105,16.4890341 35.5477609,14.8292683 33.5003971,14.8292683 C33.2253144,14.8292683 32.9865635,14.6427346 32.9096367,14.3787366 C32.6060077,13.3373698 32.1911594,12.3433824 31.678994,11.4104546 C31.5464576,11.1687561 31.5835307,10.8671473 31.77835,10.6721795 C33.2262413,9.22437951 33.2262413,6.8770361 31.77835,5.4292361 C30.3306442,3.9814361 27.9833587,3.9814361 26.5354675,5.4292361 C26.3404628,5.6242039 26.0388729,5.66129561 25.797156,5.5285922 C24.864396,5.01646341 23.8704653,4.60174439 22.8290809,4.29817073 C22.5651202,4.22118829 22.378457,3.98232585 22.378457,3.70731707 C22.378457,1.65982146 20.7186928,0 18.6711436,0 Z M18.671329,24.097561 C21.7426528,24.097561 24.232299,21.6079122 24.232299,18.5365854 C24.232299,15.4652585 21.7426528,12.9756098 18.671329,12.9756098 C15.6000052,12.9756098 13.110359,15.4652585 13.110359,18.5365854 C13.110359,21.6079122 15.6000052,24.097561 18.671329,24.097561 Z" opacity="0.25"></path>
                        <path d="M19.1345397,22.4756098 C21.054119,22.4756098 22.6101495,20.9195793 22.6101495,19 C22.6101495,17.0804207 21.054119,15.5243902 19.1345397,15.5243902 C17.2149605,15.5243902 15.65893,17.0804207 15.65893,19 C15.65893,20.9195793 17.2149605,22.4756098 19.1345397,22.4756098 Z M19.1345397,25.9512195 C22.9735245,25.9512195 26.0857592,22.8389848 26.0857592,19 C26.0857592,15.1609457 22.9735245,12.0487805 19.1345397,12.0487805 C15.2954855,12.0487805 12.1833202,15.1609457 12.1833202,19 C12.1833202,22.8389848 15.2954855,25.9512195 19.1345397,25.9512195 Z"></path>
                    </g>
                </g>
            </g>
        </g>
    </g>
</svg>