<?xml version="1.0" encoding="UTF-8"?>
<svg width="36px" height="36px" viewBox="0 0 36 36" version="1.1" xmlns="http://www.w3.org/2000/svg" xmlns:xlink="http://www.w3.org/1999/xlink">
    <title>Soon...</title>
    <g id="Dashboard" stroke="none" stroke-width="1" fill="none" fill-rule="evenodd">
        <g id="Dashboard--Main-Screen---Desktop--Copy" transform="translate(-22.000000, -125.000000)" fill="#FFFFFF">
            <g id="Menu-bar">
                <g id="chat" transform="translate(19.000000, 122.000000)">
                    <g id="Comment" transform="translate(3.500000, 3.500000)">
                        <path d="M6.4658475,0.85631 C3.50826,1.30634 1.1648875,3.47354 0.657055,6.4217475 C0.3031175,8.47651 0,11.0866875 0,14 C0,16.913225 0.3031175,19.523525 0.657055,21.5782 C1.09298,24.10905 2.88148,26.064325 5.25,26.852 L5.25,32.8083 C5.25,34.163325 6.7236925,35.0042 7.8902775,34.314875 L18.592175,27.991075 C22.4672,27.92755 25.94165,27.538175 28.5341,27.143725 C31.491775,26.693625 33.8352,24.526425 34.342875,21.5782 C34.6969,19.523525 35,16.913225 35,14 C35,11.0866875 34.6969,8.47651 34.342875,6.4217475 C33.8352,3.47354 31.491775,1.30634 28.5341,0.85631 C25.700325,0.4251275 21.8127,0 17.5,0 C13.1872825,0 9.2996925,0.4251275 6.4658475,0.85631 Z" id="Path" opacity="0.25"></path>
                        <path d="M27.0645926,12.5611942 C26.1237518,11.971483 24.8756914,12.2446135 24.277103,13.1713877 C24.252166,13.2097671 21.7392861,17.022855 17.5,17.022855 C13.2607139,17.022855 10.747834,13.2097671 10.722897,13.1713877 C10.1242076,12.2447129 8.87624823,11.9715825 7.93540739,12.5611942 C6.99456655,13.1509054 6.71723103,14.3800421 7.31592039,15.3064186 C7.46614801,15.5388827 11.068784,21 17.5,21 C23.931216,21 27.533852,15.5389821 27.6840796,15.3064186 C28.282769,14.3798432 28.0054334,13.1509054 27.0645926,12.5611942" id="Shape"></path>
                    </g>
                </g>
            </g>
        </g>
    </g>
</svg>