<svg width="30" height="30" viewBox="0 0 30 30" fill="none" xmlns="http://www.w3.org/2000/svg">
<path d="M21.51 0H8.505C3.42 0 0 3.57 0 8.88V21.1365C0 26.43 3.42 30 8.505 30H21.51C26.595 30 30 26.43 30 21.1365V8.88C30 3.57 26.595 0 21.51 0Z" fill="#3B4BF9"/>
<path d="M21.2702 12.3597L14.1452 19.4847C13.8902 19.7397 13.5602 19.8597 13.2152 19.8597C12.8852 19.8597 12.5552 19.7397 12.3002 19.4847L8.73016 15.9297C8.22016 15.4047 8.22016 14.5797 8.73016 14.0697C9.24016 13.5597 10.0802 13.5597 10.5902 14.0697L13.2152 16.6947L19.4102 10.4997C19.9202 9.98969 20.7602 9.98969 21.2702 10.4997C21.7802 11.0247 21.7802 11.8497 21.2702 12.3597Z" fill="white"/>
</svg>
