<svg width="45" height="45" viewBox="0 0 45 45" fill="none" xmlns="http://www.w3.org/2000/svg">
<path d="M0 0H37C41.4183 0 45 3.58172 45 8V37C45 41.4183 41.4183 45 37 45H0V0Z" fill="#2906A4"/>
<path d="M19.7344 30.4999C17.3914 30.4999 15.4844 28.5929 15.4844 26.2499V16H13.7344C12.2174 16 10.9844 17.2328 10.9844 18.7499V32.2499C10.9844 33.7669 12.2174 34.9999 13.7344 34.9999H26.2343C27.7513 34.9999 28.9844 33.7669 28.9844 32.2499V30.4999H19.7344Z" fill="white"/>
<path d="M32.9843 13.7501C32.9843 12.231 31.7533 11 30.2344 11H19.7344C18.2154 11 16.9844 12.231 16.9844 13.7501V26.2499C16.9844 27.769 18.2154 29 19.7344 29H30.2344C31.7533 29 32.9843 27.769 32.9843 26.2499V13.7501Z" fill="white"/>
</svg>
