<svg width="16" height="16" viewBox="0 0 16 16" fill="none" xmlns="http://www.w3.org/2000/svg">
<g clip-path="url(#clip0_1424_836)">
<path d="M6.4161 12.4964C5.09075 12.4964 4.01201 11.4177 4.01201 10.0924V4.29443H3.02215C2.16403 4.29443 1.46655 4.99181 1.46655 5.84993V13.4863C1.46655 14.3444 2.16403 15.0419 3.02215 15.0419H10.0928C10.9509 15.0419 11.6484 14.3444 11.6484 13.4863V12.4964H6.4161Z" fill="white"/>
<path d="M13.911 3.0219C13.911 2.16264 13.2146 1.46631 12.3555 1.46631H6.41607C5.55681 1.46631 4.86047 2.16264 4.86047 3.0219V10.0926C4.86047 10.9518 5.55681 11.6482 6.41607 11.6482H12.3555C13.2146 11.6482 13.911 10.9518 13.911 10.0926V3.0219Z" fill="white"/>
</g>
<defs>
<clipPath id="clip0_1424_836">
<rect width="14.9333" height="14.9333" fill="white" transform="translate(0.222168 0.844238)"/>
</clipPath>
</defs>
</svg>
