<svg width="24" height="24" viewBox="0 0 24 24" fill="none" xmlns="http://www.w3.org/2000/svg">
<circle cx="12" cy="12" r="12" fill="#FFD147"/>
<circle cx="12" cy="12" r="12" fill="url(#paint0_linear)"/>
<circle cx="11.9199" cy="11.92" r="10" fill="url(#paint1_linear)"/>
<path fill-rule="evenodd" clip-rule="evenodd" d="M17.8478 11.9725C17.8478 8.73281 15.2122 6.09717 11.9728 6.09717C8.73305 6.09717 6.09741 8.73281 6.09741 11.9725C6.09741 15.2123 8.73305 17.8479 11.9728 17.8479H11.9728V17.8481C11.9863 17.8481 11.9997 17.848 12.0132 17.8479H16.7449C17.2147 17.8479 17.5955 17.4671 17.5955 16.9976C17.5955 16.5281 17.2147 16.1476 16.7449 16.1476H16.1028C17.1799 15.082 17.8482 13.6039 17.8482 11.9727H16.1479C16.1479 14.2634 14.2933 16.1293 12.0068 16.1476H11.9728C9.69334 16.1476 7.83517 14.312 7.79806 12.0417L7.79773 11.9725C7.79773 9.6705 9.6704 7.79782 11.9728 7.79782V7.79748C14.2748 7.79748 16.1479 9.6705 16.1479 11.9725H17.8478Z" fill="#00FFDD"/>
<path fill-rule="evenodd" clip-rule="evenodd" d="M11.9727 14.2377C10.7217 14.2377 9.70776 13.2238 9.70776 11.9727C9.70776 10.722 10.7217 9.70776 11.9727 9.70776C13.2234 9.70776 14.2377 10.722 14.2377 11.9727C14.2377 13.2238 13.2234 14.2377 11.9727 14.2377Z" fill="#00FFDD"/>
<path fill-rule="evenodd" clip-rule="evenodd" d="M11.9727 14.2377C10.7217 14.2377 9.70776 13.2238 9.70776 11.9727C9.70776 10.722 10.7217 9.70776 11.9727 9.70776C13.2234 9.70776 14.2377 10.722 14.2377 11.9727C14.2377 13.2238 13.2234 14.2377 11.9727 14.2377Z" fill="#2E3192"/>
<defs>
<linearGradient id="paint0_linear" x1="-3.12" y1="8.88" x2="15.6" y2="27.6" gradientUnits="userSpaceOnUse">
<stop stop-color="#FFF500"/>
<stop offset="0.994792" stop-color="#FFBF00"/>
</linearGradient>
<linearGradient id="paint1_linear" x1="1.84" y1="1.84" x2="22" y2="22" gradientUnits="userSpaceOnUse">
<stop stop-color="#20225C"/>
<stop offset="1" stop-color="#101133"/>
</linearGradient>
</defs>
</svg>
