<svg width="16" height="16" viewBox="0 0 16 16" fill="none" xmlns="http://www.w3.org/2000/svg">
<g opacity="0.6">
<path fill-rule="evenodd" clip-rule="evenodd" d="M13.5847 5.78912L13.6865 5.68726L13.6866 5.68724C13.9398 5.43397 14.0665 5.30733 14.1563 5.1851C14.6745 4.4803 14.6745 3.52052 14.1564 2.81571C14.0665 2.69349 13.9399 2.56685 13.6866 2.31357L13.6866 2.31355C13.4333 2.06026 13.3066 1.93361 13.1844 1.84374C12.4796 1.32553 11.5198 1.32552 10.815 1.84371C10.6928 1.93358 10.5661 2.06022 10.3128 2.31349L10.3128 2.31351L10.2112 2.41514C10.6132 4.07794 11.922 5.38685 13.5847 5.78912ZM9.02108 3.60524L4.24258 8.38369C3.73328 8.89299 3.47862 9.14764 3.27628 9.43777C3.09667 9.69529 2.94801 9.97306 2.83337 10.2653C2.70421 10.5946 2.63358 10.9478 2.49232 11.6541L2.31132 12.5591C2.21689 13.0312 2.16968 13.2673 2.23934 13.4356C2.30024 13.5829 2.41718 13.6998 2.56438 13.7607C2.73276 13.8304 2.96882 13.7831 3.44095 13.6887L4.34599 13.5077L4.34601 13.5077C5.05227 13.3665 5.4054 13.2958 5.73469 13.1667C6.02697 13.052 6.30474 12.9034 6.56226 12.7238C6.85239 12.5214 7.10704 12.2668 7.61633 11.7575L12.3947 6.97916C10.8618 6.36174 9.63834 5.13812 9.02108 3.60524Z" fill="white" fill-opacity="0.6"/>
</g>
</svg>
