<?xml version="1.0" encoding="UTF-8"?>
<svg width="36px" height="27px" viewBox="0 0 36 27" version="1.1" xmlns="http://www.w3.org/2000/svg" xmlns:xlink="http://www.w3.org/1999/xlink">
    <title>events</title>
    <g id="Dashboard" stroke="none" stroke-width="1" fill="none" fill-rule="evenodd">
        <g id="Dashboard--Main-Screen---Desktop--Copy" transform="translate(-22.000000, -67.000000)">
            <g id="Menu-bar">
                <g id="controller-play-active" transform="translate(21.000000, 60.000000)">
                    <g id="Controller-Copy" transform="translate(0.000000, 7.916667)">
                        <path d="M2.29995,6.93473083 C2.79516917,2.97299333 6.16291917,0 10.1554842,0 L27.8448167,0 C31.83735,0 35.2051,2.97299333 35.7003667,6.93473083 L36.9265,16.7448583 C37.4966583,21.3053333 33.9408083,25.3333333 29.3448667,25.3333333 C26.8059917,25.3333333 24.5424583,24.09105 23.1502333,22.1666667 L14.8499883,22.1666667 C13.4578583,24.09105 11.1943092,25.3333333 8.65538667,25.3333333 C4.05950833,25.3333333 0.503629833,21.3053333 1.07367733,16.7448583 L2.29995,6.93473083 Z" id="Path" fill="#00FFDD" fill-rule="nonzero"></path>
                        <path d="M12.6666667,6.33333333 C11.7922233,6.33333333 11.0833333,7.04222333 11.0833333,7.91666667 L11.0833333,9.5 L9.5,9.5 C8.62555667,9.5 7.91666667,10.2088583 7.91666667,11.0833333 C7.91666667,11.9578083 8.62555667,12.6666667 9.5,12.6666667 L11.0833333,12.6666667 L11.0833333,14.25 C11.0833333,15.124475 11.7922233,15.8333333 12.6666667,15.8333333 C13.5411258,15.8333333 14.25,15.124475 14.25,14.25 L14.25,12.6666667 L15.8333333,12.6666667 C16.7078083,12.6666667 17.4166667,11.9578083 17.4166667,11.0833333 C17.4166667,10.2088583 16.7078083,9.5 15.8333333,9.5 L14.25,9.5 L14.25,7.91666667 C14.25,7.04222333 13.5411258,6.33333333 12.6666667,6.33333333 Z" id="Path" fill="#4040FF" fill-rule="nonzero"></path>
                        <path d="M28.5,9.5 C29.374475,9.5 30.0833333,8.79112583 30.0833333,7.91666667 C30.0833333,7.0422075 29.374475,6.33333333 28.5,6.33333333 C27.625525,6.33333333 26.9166667,7.0422075 26.9166667,7.91666667 C26.9166667,8.79112583 27.625525,9.5 28.5,9.5 Z" id="Path" fill="#4040FF" fill-rule="nonzero"></path>
                        <path d="M25.3333333,15.8333333 C26.2078083,15.8333333 26.9166667,15.124475 26.9166667,14.25 C26.9166667,13.375525 26.2078083,12.6666667 25.3333333,12.6666667 C24.4588583,12.6666667 23.75,13.375525 23.75,14.25 C23.75,15.124475 24.4588583,15.8333333 25.3333333,15.8333333 Z" id="Path" fill="#4040FF" fill-rule="nonzero"></path>
                    </g>
                </g>
            </g>
        </g>
    </g>
</svg>