<?xml version="1.0" encoding="UTF-8"?>
<svg width="17px" height="12px" viewBox="0 0 17 12" version="1.1" xmlns="http://www.w3.org/2000/svg" xmlns:xlink="http://www.w3.org/1999/xlink">
    <title>Icon</title>
    <g id="Dashboard" stroke="none" stroke-width="1" fill="none" fill-rule="evenodd">
        <g id="Dashboard--Manage-Stream---Desktop" transform="translate(-1076.000000, -835.000000)" fill="#FFFFFF">
            <g id="Participants-Count" transform="translate(1076.000000, 833.000000)">
                <g id="viewers" transform="translate(0.000000, 2.000000)">
                    <g id="Eye">
                        <path d="M15.825725,3.90008333 C16.6586542,4.9467875 16.6586542,6.38654583 15.825725,7.43325 C14.5023458,9.09620417 12.0604375,11.3333333 8.49992917,11.3333333 C4.93949875,11.3333333 2.49758333,9.09620417 1.17421833,7.43325 C0.341252333,6.38654583 0.341252333,4.9467875 1.17421833,3.90008333 C2.49758333,2.23710083 4.93949875,0 8.49992917,0 C12.0604375,0 14.5023458,2.23710083 15.825725,3.90008333 Z" id="Path" fill-rule="nonzero" opacity="0.25"></path>
                        <path d="M9.91666667,5.66666667 C9.91666667,6.44909167 9.282425,7.08333333 8.5,7.08333333 C7.717575,7.08333333 7.08333333,6.44909167 7.08333333,5.66666667 C7.08333333,5.64655 7.08375833,5.626575 7.08460833,5.60667083 C7.1950375,5.6454875 7.31375417,5.66666667 7.4375,5.66666667 C8.02428333,5.66666667 8.5,5.19095 8.5,4.60416667 C8.5,4.48042083 8.47882083,4.36170417 8.44000417,4.251275 C8.45990833,4.250425 8.47988333,4.25 8.5,4.25 C9.282425,4.25 9.91666667,4.88424167 9.91666667,5.66666667 Z M11.3333333,5.66666667 C11.3333333,7.23144583 10.0647792,8.5 8.5,8.5 C6.9351925,8.5 5.66666667,7.23144583 5.66666667,5.66666667 C5.66666667,4.10185917 6.9351925,2.83333333 8.5,2.83333333 C10.0647792,2.83333333 11.3333333,4.10185917 11.3333333,5.66666667 Z" id="Shape"></path>
                    </g>
                </g>
            </g>
        </g>
    </g>
</svg>