<svg xmlns="http://www.w3.org/2000/svg" fill="#0AFFD2" viewBox="0 0 180.97 180.95"><defs></defs><title>ganado</title><g id="Layer_2" data-name="Layer 2"><g id="Primarios"><path class="cls-1" d="M5.14,60.44A90.47,90.47,0,1,0,172.81,53a3.68,3.68,0,1,0-6.7,3,82.81,82.81,0,1,1-21.62-28.76,3.68,3.68,0,0,0,4.78-5.6A90.52,90.52,0,0,0,5.14,60.44Z"/><path class="cls-1" d="M144.66,46.1l-69,69a4.39,4.39,0,0,1-6.2,0L36.29,81.92a4.39,4.39,0,0,0-6.2,0h0a4.4,4.4,0,0,0,0,6.21L69.46,127.5a4.39,4.39,0,0,0,6.2,0l75.2-75.19a4.4,4.4,0,0,0,0-6.21h0A4.39,4.39,0,0,0,144.66,46.1Z"/></g></g></svg>