<svg width="32" height="32" viewBox="0 0 32 32" fill="none" xmlns="http://www.w3.org/2000/svg">
<path fill-rule="evenodd" clip-rule="evenodd" d="M5.33366 8C3.8609 8 2.66699 9.19391 2.66699 10.6667V12C2.66699 13.4728 3.8609 14.6667 5.33366 14.6667H26.667C28.1398 14.6667 29.3337 13.4728 29.3337 12V10.6667C29.3337 9.19391 28.1398 8 26.667 8H5.33366ZM5.33333 17.3335C4.59696 17.3335 4 17.9304 4 18.6668V25.3335C4 27.5427 5.79087 29.3335 8 29.3335H24C26.2092 29.3335 28 27.5427 28 25.3335V18.6668C28 17.9304 27.4031 17.3335 26.6667 17.3335H5.33333Z" fill="white"/>
<path fill-rule="evenodd" clip-rule="evenodd" d="M5.33366 8C3.8609 8 2.66699 9.19391 2.66699 10.6667V12C2.66699 13.4728 3.8609 14.6667 5.33366 14.6667H26.667C28.1398 14.6667 29.3337 13.4728 29.3337 12V10.6667C29.3337 9.19391 28.1398 8 26.667 8H5.33366ZM5.33333 17.3335C4.59696 17.3335 4 17.9304 4 18.6668V25.3335C4 27.5427 5.79087 29.3335 8 29.3335H24C26.2092 29.3335 28 27.5427 28 25.3335V18.6668C28 17.9304 27.4031 17.3335 26.6667 17.3335H5.33333Z" fill="url(#paint0_linear_2714_27455)"/>
<path fill-rule="evenodd" clip-rule="evenodd" d="M9.33301 6.6665C9.33301 8.87564 11.1239 10.6665 13.333 10.6665H14.6663V13.9998C14.6663 14.368 14.9649 14.6665 15.333 14.6665H16.6663C17.0345 14.6665 17.333 14.368 17.333 13.9998V10.6665H18.6663C20.8755 10.6665 22.6663 8.87564 22.6663 6.6665C22.6663 4.45737 20.8755 2.6665 18.6663 2.6665C17.6418 2.6665 16.7074 3.05164 15.9997 3.68502C15.2919 3.05164 14.3575 2.6665 13.333 2.6665C11.1239 2.6665 9.33301 4.45737 9.33301 6.6665ZM13.9997 7.99984C14.3678 7.99984 14.6663 7.70136 14.6663 7.33317V6.6665C14.6663 5.93013 14.0694 5.33317 13.333 5.33317C12.5966 5.33317 11.9997 5.93013 11.9997 6.6665C11.9997 7.40288 12.5966 7.99984 13.333 7.99984H13.9997ZM17.9997 7.99984C17.6315 7.99984 17.333 7.70136 17.333 7.33317V6.6665C17.333 5.93013 17.9299 5.33317 18.6663 5.33317C19.4027 5.33317 19.9997 5.93013 19.9997 6.6665C19.9997 7.40288 19.4027 7.99984 18.6663 7.99984H17.9997Z" fill="white"/>
<path d="M14.667 18.0002C14.667 17.632 14.9655 17.3335 15.3337 17.3335H16.667C17.0351 17.3335 17.3337 17.632 17.3337 18.0002V28.6668C17.3337 29.035 17.0351 29.3335 16.667 29.3335H15.3337C14.9655 29.3335 14.667 29.035 14.667 28.6668V18.0002Z" fill="white"/>
<defs>
<linearGradient id="paint0_linear_2714_27455" x1="3" y1="10" x2="28" y2="29" gradientUnits="userSpaceOnUse">
<stop stop-color="#A93DFF"/>
<stop offset="1" stop-color="#2042F7"/>
</linearGradient>
</defs>
</svg>
