<svg width="76" height="76" viewBox="0 0 76 76" fill="none" xmlns="http://www.w3.org/2000/svg">
<path fill-rule="evenodd" clip-rule="evenodd" d="M0.5 37.9976C0.5 17.3013 17.3 0.497559 38 0.497559C58.7375 0.497559 75.5 17.3013 75.5 37.9976C75.5 58.7013 58.7375 75.4976 38 75.4976C17.3 75.4976 0.5 58.7013 0.5 37.9976ZM34.7 23.7851C34.7 21.9888 36.2 20.4851 38 20.4851C39.8 20.4851 41.2625 21.9888 41.2625 23.7851V40.3601C41.2625 42.1638 39.8 43.6226 38 43.6226C36.2 43.6226 34.7 42.1638 34.7 40.3601V23.7851ZM38.0375 55.5513C36.2 55.5513 34.7375 54.0513 34.7375 52.2513C34.7375 50.4513 36.2 48.9888 38 48.9888C39.8375 48.9888 41.3 50.4513 41.3 52.2513C41.3 54.0513 39.8375 55.5513 38.0375 55.5513Z" fill="#FCFF6B"/>
</svg>
