<svg width="30" height="30" viewBox="0 0 30 30" fill="none" xmlns="http://www.w3.org/2000/svg">
<path opacity="0.4" d="M2.5 8.05875C2.5 4.995 5.0378 2.5 8.15567 2.5H14.3571C17.4686 2.5 20 4.9875 20 8.04625V21.9412C20 25.0063 17.4622 27.5 14.3431 27.5H8.14422C5.03144 27.5 2.5 25.0125 2.5 21.9538V20.7787V8.05875Z" fill="white"/>
<path d="M27.2237 14.3186L23.6665 10.6823C23.2988 10.3073 22.7072 10.3073 22.3407 10.6848C21.9755 11.0623 21.9767 11.6711 22.3432 12.0461L24.2922 14.0373H22.4235H11.9356C11.4182 14.0373 10.9982 14.4686 10.9982 14.9998C10.9982 15.5323 11.4182 15.9623 11.9356 15.9623H24.2922L22.3432 17.9536C21.9767 18.3286 21.9755 18.9373 22.3407 19.3148C22.5246 19.5036 22.7644 19.5986 23.0054 19.5986C23.244 19.5986 23.4839 19.5036 23.6665 19.3173L27.2237 15.6823C27.4002 15.5011 27.5001 15.2561 27.5001 14.9998C27.5001 14.7448 27.4002 14.4998 27.2237 14.3186Z" fill="white"/>
</svg>
