<svg width="32" height="32" viewBox="0 0 32 32" fill="none" xmlns="http://www.w3.org/2000/svg">
<path fill-rule="evenodd" clip-rule="evenodd" d="M2.66675 16.0199C2.66675 8.996 8.28008 2.6665 16.0267 2.6665C23.6001 2.6665 29.3334 8.87582 29.3334 15.9798C29.3334 24.2188 22.6134 29.3332 16.0001 29.3332C13.8134 29.3332 11.3867 28.7456 9.44008 27.5972C8.76008 27.1833 8.18675 26.8762 7.45341 27.1165L4.76008 27.9177C4.08008 28.1314 3.46675 27.5972 3.66675 26.8762L4.56008 23.885C4.70675 23.471 4.68008 23.0304 4.46675 22.6832C3.32008 20.5734 2.66675 18.2632 2.66675 16.0199ZM14.2667 16.0199C14.2667 16.968 15.0267 17.7291 15.9734 17.7424C16.9201 17.7424 17.6801 16.968 17.6801 16.0332C17.6801 15.0851 16.9201 14.324 15.9734 14.324C15.0401 14.3106 14.2667 15.0851 14.2667 16.0199ZM20.4134 16.0332C20.4134 16.968 21.1734 17.7425 22.1201 17.7425C23.0667 17.7425 23.8267 16.968 23.8267 16.0332C23.8267 15.0851 23.0667 14.324 22.1201 14.324C21.1734 14.324 20.4134 15.0851 20.4134 16.0332ZM9.82675 17.7425C8.89341 17.7425 8.12008 16.968 8.12008 16.0332C8.12008 15.0851 8.88008 14.324 9.82675 14.324C10.7734 14.324 11.5334 15.0851 11.5334 16.0332C11.5334 16.968 10.7734 17.7291 9.82675 17.7425Z" fill="white"/>
</svg>
