<svg width="16" height="17" viewBox="0 0 16 17" fill="none" xmlns="http://www.w3.org/2000/svg">
<path fill-rule="evenodd" clip-rule="evenodd" d="M0.833496 8.5013C0.833496 7.16797 2.66683 2.66797 8.00016 2.66797C13.3335 2.66797 15.1668 7.16797 15.1668 8.5013C15.1668 9.83463 13.3335 14.3346 8.00016 14.3346C2.66683 14.3346 0.833496 9.83463 0.833496 8.5013ZM6.75016 8.5013C6.75016 7.81095 7.30981 7.2513 8.00016 7.2513C8.69052 7.2513 9.25016 7.81095 9.25016 8.5013C9.25016 9.19166 8.69052 9.7513 8.00016 9.7513C7.30981 9.7513 6.75016 9.19166 6.75016 8.5013ZM8.00016 5.7513C6.48138 5.7513 5.25016 6.98252 5.25016 8.5013C5.25016 10.0201 6.48138 11.2513 8.00016 11.2513C9.51895 11.2513 10.7502 10.0201 10.7502 8.5013C10.7502 6.98252 9.51895 5.7513 8.00016 5.7513Z" fill="white"/>
</svg>
