<?xml version="1.0" encoding="UTF-8"?>
<svg width="20px" height="20px" viewBox="0 0 20 20" version="1.1" xmlns="http://www.w3.org/2000/svg" xmlns:xlink="http://www.w3.org/1999/xlink">
    <title>options-menu</title>
    <g id="Dashboard" stroke="none" stroke-width="1" fill="none" fill-rule="evenodd">
        <g id="Dashboard--Main-Screen---Desktop--Copy" transform="translate(-629.000000, -728.000000)" fill="#FFFFFF">
            <g id="Event-Card" transform="translate(424.000000, 430.000000)">
                <g id="options-menu" transform="translate(205.000000, 298.000000)">
                    <g id="Options-Square">
                        <path d="M0.36899,4.54184 C0.65912,2.34504 2.34504,0.65912 4.54184,0.36899 C6.05208,0.16953 7.94127,0 10,0 C12.0587,0 13.9479,0.16953 15.4582,0.36899 C17.655,0.65912 19.3409,2.34504 19.631,4.54184 C19.8305,6.05208 20,7.94127 20,10 C20,12.0587 19.8305,13.9479 19.631,15.4582 C19.3409,17.655 17.655,19.3409 15.4582,19.631 C13.9479,19.8305 12.0587,20 10,20 C7.94127,20 6.05208,19.8305 4.54184,19.631 C2.34504,19.3409 0.65912,17.655 0.36899,15.4582 C0.16953,13.9479 0,12.0587 0,10 C0,7.94127 0.16953,6.05208 0.36899,4.54184 Z" id="Path" opacity="0.25"></path>
                        <path d="M7,10 C7,10.5523 6.55228,11 6,11 C5.44772,11 5,10.5523 5,10 C5,9.4477 5.44772,9 6,9 C6.55228,9 7,9.4477 7,10 Z M11,10 C11,10.5523 10.5523,11 10,11 C9.4477,11 9,10.5523 9,10 C9,9.4477 9.4477,9 10,9 C10.5523,9 11,9.4477 11,10 Z M14,11 C14.5523,11 15,10.5523 15,10 C15,9.4477 14.5523,9 14,9 C13.4477,9 13,9.4477 13,10 C13,10.5523 13.4477,11 14,11 Z" id="Shape"></path>
                    </g>
                </g>
            </g>
        </g>
    </g>
</svg>