<svg xmlns="http://www.w3.org/2000/svg" fill="#FF0000" viewBox="0 0 180.94 180.94"><defs></defs><title>perdido</title><g id="Layer_2" data-name="Layer 2"><g id="Primarios"><path class="cls-1" d="M90.47,0a90.47,90.47,0,1,0,62.69,155.69,3.68,3.68,0,0,0-5.1-5.31A82.86,82.86,0,1,1,168,120.44a3.68,3.68,0,0,0,6.87,2.65A90.5,90.5,0,0,0,90.47,0Z"/><path class="cls-1" d="M102.86,98.27a3.68,3.68,0,0,0-5.15,5.26l29,28.38a3.65,3.65,0,0,0,2.57,1.05,3.68,3.68,0,0,0,2.58-6.32Z"/><path class="cls-1" d="M76.82,82A3.68,3.68,0,0,0,82,76.82L54.27,49.06a3.68,3.68,0,0,0-5.21,5.2Z"/><path class="cls-1" d="M131.88,49.06a3.68,3.68,0,0,0-5.21,0L49.06,126.67a3.68,3.68,0,1,0,5.21,5.21l77.61-77.61A3.68,3.68,0,0,0,131.88,49.06Z"/></g></g></svg>