<?xml version="1.0" encoding="UTF-8"?>
<svg width="12px" height="16px" viewBox="0 0 12 16" version="1.1" xmlns="http://www.w3.org/2000/svg" xmlns:xlink="http://www.w3.org/1999/xlink">
    <title>Profile</title>
    <g id="Dashboard" stroke="none" stroke-width="1" fill="none" fill-rule="evenodd">
        <g id="Dashboard--Manage-Stream---Desktop" transform="translate(-129.000000, -832.000000)" fill="#FFFFFF">
            <g id="List-Headers" transform="translate(127.000000, 830.000000)">
                <g id="user-profile" transform="translate(0.000000, 2.000000)">
                    <g id="User" transform="translate(2.000000, 0.666667)">
                        <path d="M9.33333333,3.33333333 C9.33333333,5.17428 7.84093333,6.66666667 6,6.66666667 C4.15905333,6.66666667 2.66666667,5.17428 2.66666667,3.33333333 C2.66666667,1.49238667 4.15905333,0 6,0 C7.84093333,0 9.33333333,1.49238667 9.33333333,3.33333333 Z" id="Path" fill-rule="nonzero"></path>
                        <path d="M10.5453333,8.74986667 C10.1344,8.2734 9.42853333,8.29793333 8.8766,8.60006667 C8.02253333,9.06753333 7.04233333,9.33333333 6,9.33333333 C4.95766667,9.33333333 3.97745333,9.06753333 3.12336667,8.60006667 C2.57144667,8.29793333 1.86560667,8.2734 1.45466667,8.74986667 C0.548146667,9.80093333 0,11.1698 0,12.6666667 L0,13.3333333 C0,14.0696667 0.596953333,14.6666667 1.33333333,14.6666667 L10.6666667,14.6666667 C11.4030667,14.6666667 12,14.0696667 12,13.3333333 L12,12.6666667 C12,11.1698 11.4518667,9.80093333 10.5453333,8.74986667 Z" id="Path" opacity="0.25"></path>
                    </g>
                </g>
            </g>
        </g>
    </g>
</svg>