<?xml version="1.0" encoding="UTF-8"?>
<svg width="40px" height="35px" viewBox="0 0 40 35" version="1.1" xmlns="http://www.w3.org/2000/svg" xmlns:xlink="http://www.w3.org/1999/xlink">
    <title>Q-logo</title>
    <defs>
        <linearGradient x1="81.6898524%" y1="31.1713299%" x2="-6.34449865%" y2="100%" id="linearGradient-1">
            <stop stop-color="#00FFDC" offset="0.0923775338%"></stop>
            <stop stop-color="#2E3192" offset="100%"></stop>
        </linearGradient>
    </defs>
    <g id="Dashboard" stroke="none" stroke-width="1" fill="none" fill-rule="evenodd">
        <g id="Dashboard--Main-Screen---Desktop--Copy" transform="translate(-21.000000, -966.000000)">
            <g id="Menu-bar">
                <g id="logo" transform="translate(0.000000, 944.000000)">
                    <g id="Q-logo" transform="translate(21.000000, 22.729167)">
                        <path d="M34.7395105,31.5949821 C34.7395105,30.1745991 35.8919833,29.0232975 37.3138112,29.0232975 C38.7356391,29.0232975 39.8881119,30.1745991 39.8881119,31.5949821 C39.8881119,33.015365 38.7356391,34.1666667 37.3138112,34.1666667 C35.8919833,34.1666667 34.7395105,33.015365 34.7395105,31.5949821 Z" id="Fill-3" fill="#00FFDC"></path>
                        <path d="M10.2972028,17.2670251 C10.2972028,13.6146252 13.2087263,10.6541219 16.8006993,10.6541219 C20.3926723,10.6541219 23.3041958,13.6146252 23.3041958,17.2670251 C23.3041958,20.918611 20.3926723,23.8799283 16.8006993,23.8799283 C13.2087263,23.8799283 10.2972028,20.918611 10.2972028,17.2670251 Z" id="Fill-6" fill="#2E3192"></path>
                        <path d="M29.1556093,16.8996416 C29.1556093,23.6653525 23.6616453,29.1700208 16.9090909,29.1700208 L16.9090909,29.1700208 L16.9090909,34.1666667 C26.4118985,34.1666667 34.1433566,26.4209642 34.1433566,16.8996416 L34.1433566,16.8996416 L29.1556093,16.8996416 Z" id="Fill-9" fill="url(#linearGradient-1)"></path>
                        <path d="M17.2342657,0 C26.5876941,0.177374461 34.1433566,7.85501799 34.1433566,17.2670251 L29.1556093,17.2670251 C29.1556093,10.5423592 23.7289022,5.06485793 17.0333262,4.99784958 L17.2342657,4.9964088 C10.4808935,4.9964088 4.98692951,10.5008159 4.98692951,17.2670251 L4.92577786,17.2673868 C5.11795396,23.8633721 10.4622636,29.1694385 17.0036339,29.1694385 L17.0036339,29.1694385 L30.8160102,29.1694385 C32.1748163,29.1694385 33.2762238,30.2878541 33.2762238,31.6684623 C33.2762238,33.0474318 32.1748163,34.1666667 30.8160102,34.1666667 L30.8160102,34.1666667 L17.0036339,34.1666667 C7.74854408,34.1666667 0.19715199,26.6199427 0.00379797834,17.2673619 L-2.37385869e-14,17.2670251 L0.001,17.047 L-3.97257984e-14,16.8996416 C0.197661545,7.65540978 7.67757645,0.174557862 16.9099692,0.00301071576 L16.9090909,0 L17.0714471,0.000758383332 C17.1256613,0.000253166354 17.1799345,0 17.2342657,0 Z" id="Combined-Shape" fill="#00FFDC"></path>
                    </g>
                </g>
            </g>
        </g>
    </g>
</svg>