<svg width="85" height="30" viewBox="0 0 85 30" fill="none" xmlns="http://www.w3.org/2000/svg">
<path fill-rule="evenodd" clip-rule="evenodd" d="M82.5241 23.4733C81.602 23.4733 80.854 22.7033 80.854 21.7542C80.854 20.805 81.602 20.0357 82.5241 20.0357C83.4455 20.0357 84.1935 20.805 84.1935 21.7542C84.1935 22.7033 83.4455 23.4733 82.5241 23.4733Z" fill="#0AFFD2"/>
<path fill-rule="evenodd" clip-rule="evenodd" d="M71.1428 20.7953C73.998 20.7953 76.2584 18.4685 76.2584 15.4992C76.2584 12.5587 73.998 10.232 71.1428 10.232C68.2575 10.232 65.9972 12.5587 65.9972 15.4992C65.9972 18.4685 68.2575 20.7953 71.1428 20.7953ZM77.5193 7.84397H77.5259C78.2222 7.84397 78.7869 8.42532 78.7869 9.14207V21.8859C78.7869 22.6026 78.2222 23.1833 77.5259 23.1833H77.5193C76.823 23.1833 76.2583 22.6026 76.2583 21.8859V21.4069C75.0012 22.5366 73.4764 23.2715 71.7311 23.4063C67.6181 23.7249 63.9024 20.5554 63.4816 16.3324C63.0111 11.6116 66.5894 7.63043 71.1428 7.63043C73.1354 7.63043 74.8611 8.39635 76.2583 9.65066V9.14207C76.2583 8.42532 76.823 7.84397 77.5193 7.84397Z" fill="#0AFFD2"/>
<path fill-rule="evenodd" clip-rule="evenodd" d="M60.359 1.78317H60.3648C61.0611 1.78317 61.6265 2.36452 61.6265 3.08126V21.8864C61.6265 22.6032 61.0611 23.1845 60.3648 23.1845H60.359C59.6633 23.1845 59.0979 22.6032 59.0979 21.8864V3.08126C59.0979 2.36452 59.6633 1.78317 60.359 1.78317Z" fill="#0AFFD2"/>
<path fill-rule="evenodd" clip-rule="evenodd" d="M49.5953 10.2319C46.7388 10.2319 44.4784 12.5593 44.4784 15.5287C44.4784 18.4691 46.7388 20.7958 49.5953 20.7958C52.4799 20.7958 54.7403 18.4691 54.7403 15.5287C54.7403 12.5593 52.4799 10.2319 49.5953 10.2319ZM43.2115 7.84452H43.218C43.9137 7.84452 44.4784 8.42519 44.4784 9.14194V9.62089C45.9325 8.25679 47.9128 7.47268 50.1142 7.61751C53.7181 7.8553 56.7355 10.7344 57.2237 14.4165C57.8664 19.2613 54.237 23.3974 49.5953 23.3974C47.6019 23.3974 45.818 22.6328 44.4784 21.3765V28.162C44.4784 28.8794 43.9137 29.4601 43.218 29.4601H43.2115C42.5152 29.4601 41.9504 28.8794 41.9504 28.162V9.14194C41.9504 8.42519 42.5152 7.84452 43.2115 7.84452Z" fill="#0AFFD2"/>
<path fill-rule="evenodd" clip-rule="evenodd" d="M31.7957 20.7653C34.6516 20.7653 36.9112 18.4379 36.9112 15.4685C36.9112 12.5288 34.6516 10.2014 31.7957 10.2014C28.9111 10.2014 26.6501 12.5288 26.6501 15.4685C26.6501 18.4379 28.9111 20.7653 31.7957 20.7653ZM38.1724 7.81401H38.1796C38.8752 7.81401 39.4399 8.39535 39.4399 9.1121V21.8559C39.4399 22.5726 38.8752 23.1533 38.1796 23.1533H38.1724C37.4767 23.1533 36.9113 22.5726 36.9113 21.8559V21.3769C35.6542 22.5066 34.1294 23.2409 32.3841 23.3763C28.2718 23.6956 24.556 20.5255 24.1352 16.3025C23.6641 11.581 27.243 7.59979 31.7958 7.59979C33.7885 7.59979 35.5148 8.36639 36.9113 9.62002V9.1121C36.9113 8.39535 37.4767 7.81401 38.1724 7.81401Z" fill="#0AFFD2"/>
<mask id="mask0_1871_942" style="mask-type:alpha" maskUnits="userSpaceOnUse" x="0" y="0" width="23" height="24">
<path fill-rule="evenodd" clip-rule="evenodd" d="M0 0H22.7977V23.4678H0V0Z" fill="white"/>
</mask>
<g mask="url(#mask0_1871_942)">
<path fill-rule="evenodd" clip-rule="evenodd" d="M19.4995 11.734C19.4995 16.3316 15.8655 20.0723 11.3992 20.0723V23.4681C17.6841 23.4681 22.7983 18.2043 22.7983 11.734H19.4995Z" fill="url(#paint0_linear_1871_942)"/>
<path fill-rule="evenodd" clip-rule="evenodd" d="M11.3992 -0.000244141C17.6841 -0.000244141 22.7977 5.26353 22.7977 11.7338H19.4995C19.4995 7.13623 15.8655 3.39554 11.3992 3.39554V3.39622C6.93217 3.39622 3.29888 7.13623 3.29888 11.7338L3.29954 11.8719C3.37152 16.4061 6.97667 20.072 11.3992 20.072H20.6578C21.5694 20.072 22.3082 20.8319 22.3082 21.7696C22.3082 22.7073 21.5694 23.4678 20.6578 23.4678H11.3992C5.11357 23.4678 0 18.204 0 11.7338C0 5.26353 5.11357 -0.000244141 11.3992 -0.000244141Z" fill="#0AFFD2"/>
<path fill-rule="evenodd" clip-rule="evenodd" d="M11.3993 16.2574C8.97204 16.2574 7.00488 14.2325 7.00488 11.734C7.00488 9.23613 8.97204 7.21051 11.3993 7.21051C13.8258 7.21051 15.7936 9.23613 15.7936 11.734C15.7936 14.2325 13.8258 16.2574 11.3993 16.2574Z" fill="#2E3192"/>
</g>
<defs>
<linearGradient id="paint0_linear_1871_942" x1="16.8019" y1="10.2071" x2="6.50993" y2="17.9945" gradientUnits="userSpaceOnUse">
<stop offset="0.000923775" stop-color="#00FFDC"/>
<stop offset="1" stop-color="#2E3192"/>
</linearGradient>
</defs>
</svg>
