<?xml version="1.0" encoding="UTF-8"?>
<svg width="129px" height="68px" viewBox="0 0 129 68" version="1.1" xmlns="http://www.w3.org/2000/svg" xmlns:xlink="http://www.w3.org/1999/xlink">
    <title>Qapla Gaming Logo</title>
    <defs>
        <path d="M12.797,0.382 C12.797,7.207 7.244,12.76 0.419,12.76 L0.419,12.76 L0.419,17.801 C10.023,17.801 17.838,9.987 17.838,0.382 L17.838,0.382 L12.797,0.382 Z" id="path-1"></path>
        <linearGradient x1="66.9775977%" y1="31.805972%" x2="-26.5036361%" y2="152.003671%" id="linearGradient-3">
            <stop stop-color="#0AFFD2" offset="0%"></stop>
            <stop stop-color="#29489A" offset="100%"></stop>
        </linearGradient>
        <polygon id="path-4" points="0.0001 0.963 34.8371 0.963 34.8371 35.8006 0.0001 35.8006"></polygon>
        <path d="M29.107,0.701 C29.06,0.939 29.128,1.083 29.194,1.165 L29.194,1.165 C29.258,1.244 29.385,1.338 29.619,1.338 L29.619,1.338 C29.966,1.338 30.197,1.137 30.269,0.771 L30.269,0.771 L30.271,0.756 C30.298,0.52 30.223,0.382 30.155,0.305 L30.155,0.305 C30.092,0.233 29.971,0.148 29.759,0.148 L29.759,0.148 C29.399,0.148 29.142,0.371 29.107,0.701 L29.107,0.701 Z M38.906,6.439 C38.628,8.161 38.579,9.146 39.083,9.741 L39.083,9.741 C39.548,10.29 40.432,10.403 41.618,10.403 L41.618,10.403 C42.279,10.403 42.843,10.386 43.459,10.347 L43.459,10.347 C43.222,11.825 42.817,12.289 40.927,12.289 L40.927,12.289 L39.051,12.289 C38.834,12.289 38.78,12.449 38.764,12.531 L38.764,12.531 L38.738,12.758 C38.719,12.845 38.739,12.927 38.791,12.989 L38.791,12.989 C38.839,13.049 38.913,13.084 38.982,13.084 L38.982,13.084 L38.983,13.084 C39.553,13.121 40.161,13.141 40.843,13.141 L40.843,13.141 C43.262,13.141 44.023,12.517 44.386,10.239 L44.386,10.239 L45.557,2.819 C45.574,2.695 45.547,2.586 45.48,2.507 L45.48,2.507 C45.424,2.442 45.34,2.404 45.245,2.403 L45.245,2.403 C43.947,2.346 43.272,2.346 42.491,2.346 L42.491,2.346 C39.907,2.346 39.404,3.218 38.906,6.439 L38.906,6.439 Z M39.854,9.118 C39.512,8.714 39.567,7.879 39.79,6.48 L39.79,6.48 C40.233,3.658 40.6,3.197 42.407,3.197 L42.407,3.197 L44.596,3.197 L43.594,9.492 C43.056,9.533 42.445,9.552 41.688,9.552 L41.688,9.552 C40.646,9.552 40.115,9.426 39.854,9.118 L39.854,9.118 Z M32.024,2.446 L31.987,2.454 C31.926,2.476 31.739,2.538 31.741,2.708 L31.741,2.708 L30.589,10.012 C30.568,10.094 30.583,10.173 30.632,10.235 L30.632,10.235 C30.68,10.298 30.755,10.332 30.844,10.332 L30.844,10.332 L31.196,10.332 C31.332,10.332 31.447,10.238 31.484,10.083 L31.484,10.083 L32.56,3.197 L34.891,3.197 C35.583,3.197 36.098,3.261 36.362,3.573 L36.362,3.573 C36.63,3.889 36.681,4.503 36.522,5.503 L36.522,5.503 L35.804,10.012 C35.786,10.09 35.802,10.17 35.849,10.231 L35.849,10.231 C35.9,10.295 35.976,10.332 36.062,10.332 L36.062,10.332 L36.415,10.332 C36.549,10.332 36.662,10.238 36.7,10.083 L36.7,10.083 L37.406,5.572 C37.611,4.251 37.518,3.447 37.106,2.963 L37.106,2.963 C36.67,2.451 35.916,2.346 34.919,2.346 L34.919,2.346 C34.022,2.346 33.007,2.346 32.024,2.446 L32.024,2.446 Z M21.467,2.686 C21.075,2.448 20.479,2.346 19.506,2.346 L19.506,2.346 C18.605,2.346 17.91,2.362 17.021,2.446 L17.021,2.446 L16.983,2.454 C16.871,2.492 16.768,2.541 16.737,2.721 L16.737,2.721 L15.582,10.02 C15.561,10.131 15.596,10.202 15.629,10.243 L15.629,10.243 C15.678,10.302 15.748,10.332 15.84,10.332 L15.84,10.332 L16.193,10.332 C16.34,10.332 16.448,10.239 16.48,10.083 L16.48,10.083 L17.556,3.197 L19.478,3.197 C20.245,3.197 20.769,3.219 21.024,3.521 L21.024,3.521 C21.259,3.798 21.299,4.359 21.152,5.29 L21.152,5.29 L20.404,10.021 C20.383,10.133 20.418,10.205 20.451,10.245 L20.451,10.245 C20.484,10.285 20.544,10.332 20.648,10.332 L20.648,10.332 L21.015,10.332 C21.12,10.332 21.254,10.289 21.288,10.083 L21.288,10.083 L22.049,5.359 C22.186,4.459 22.175,3.834 22.011,3.376 L22.011,3.376 C22.6,3.263 23.363,3.197 24.103,3.197 L24.103,3.197 C24.795,3.197 25.309,3.261 25.574,3.573 L25.574,3.573 C25.842,3.889 25.893,4.503 25.732,5.503 L25.732,5.503 L25.03,10.02 C25.008,10.132 25.042,10.204 25.076,10.245 L25.076,10.245 C25.108,10.284 25.168,10.332 25.273,10.332 L25.273,10.332 L25.625,10.332 C25.771,10.332 25.881,10.239 25.913,10.083 L25.913,10.083 L26.631,5.573 L26.631,5.572 C26.835,4.256 26.741,3.453 26.328,2.966 L26.328,2.966 C25.89,2.451 25.133,2.346 24.131,2.346 L24.131,2.346 C23.251,2.346 22.24,2.476 21.467,2.686 L21.467,2.686 Z M10.052,2.421 C9.882,2.454 9.833,2.555 9.817,2.682 L9.817,2.682 L9.772,2.876 C9.752,2.992 9.79,3.065 9.825,3.108 L9.825,3.108 C9.874,3.165 9.947,3.197 10.03,3.197 L10.03,3.197 L11.665,3.197 C12.566,3.197 13.147,3.364 13.44,3.709 L13.44,3.709 C13.653,3.958 13.72,4.304 13.648,4.764 L13.648,4.764 L13.462,5.892 L10.904,5.892 C9.254,5.892 8.456,6.523 8.235,7.997 L8.235,7.997 C8.088,8.866 8.165,9.423 8.481,9.801 L8.481,9.801 C8.832,10.218 9.466,10.403 10.537,10.403 L10.537,10.403 C11.066,10.403 12.714,10.365 13.327,10.2 L13.327,10.2 C13.597,10.136 13.729,10.006 13.757,9.785 L13.757,9.785 L14.546,4.778 L14.547,4.777 C14.654,4.07 14.536,3.508 14.195,3.108 L14.195,3.108 C13.751,2.587 12.97,2.346 11.737,2.346 L11.737,2.346 C11.27,2.346 10.739,2.346 10.052,2.421 L10.052,2.421 Z M9.247,9.198 C9.067,8.988 9.029,8.646 9.118,8.054 L9.118,8.054 C9.245,7.245 9.573,6.744 10.82,6.744 L10.82,6.744 L13.334,6.744 L12.908,9.422 C12.165,9.548 10.823,9.552 10.664,9.552 L10.664,9.552 C9.903,9.552 9.453,9.44 9.247,9.198 L9.247,9.198 Z M1.029,6.439 C0.751,8.161 0.704,9.146 1.207,9.741 L1.207,9.741 C1.671,10.29 2.556,10.403 3.741,10.403 L3.741,10.403 C4.402,10.403 4.967,10.386 5.583,10.347 L5.583,10.347 C5.346,11.825 4.942,12.289 3.05,12.289 L3.05,12.289 L1.175,12.289 C0.958,12.289 0.902,12.449 0.887,12.531 L0.887,12.531 L0.86,12.758 C0.844,12.845 0.863,12.927 0.913,12.989 L0.913,12.989 C0.962,13.049 1.036,13.084 1.106,13.084 L1.106,13.084 L1.107,13.084 C1.677,13.121 2.284,13.141 2.966,13.141 L2.966,13.141 C5.385,13.141 6.147,12.517 6.508,10.239 L6.508,10.239 L7.679,2.818 C7.697,2.695 7.67,2.585 7.604,2.507 L7.604,2.507 C7.546,2.441 7.463,2.404 7.368,2.403 L7.368,2.403 C6.07,2.346 5.395,2.346 4.616,2.346 L4.616,2.346 C2.029,2.346 1.526,3.218 1.029,6.439 L1.029,6.439 Z M1.978,9.118 C1.636,8.714 1.691,7.879 1.913,6.48 L1.913,6.48 C2.357,3.658 2.724,3.197 4.53,3.197 L4.53,3.197 L6.721,3.197 L5.718,9.492 C5.179,9.533 4.568,9.552 3.812,9.552 L3.812,9.552 C2.771,9.552 2.24,9.426 1.978,9.118 L1.978,9.118 Z M29.223,2.431 C29.152,2.431 28.983,2.456 28.936,2.695 L28.936,2.695 L27.782,10.02 C27.759,10.132 27.794,10.204 27.828,10.245 L27.828,10.245 C27.854,10.278 27.914,10.332 28.025,10.332 L28.025,10.332 L28.391,10.332 C28.458,10.332 28.62,10.309 28.664,10.083 L28.664,10.083 L29.818,2.742 C29.841,2.63 29.806,2.558 29.773,2.518 L29.773,2.518 C29.74,2.479 29.68,2.431 29.576,2.431 L29.576,2.431 L29.223,2.431 Z" id="path-6"></path>
    </defs>
    <g id="Sign-up---Sign-in" stroke="none" stroke-width="1" fill="none" fill-rule="evenodd">
        <g id="Sign-Up---Invite-Code---Desktop" transform="translate(-198.000000, -904.000000)">
            <g id="Side-Section">
                <g id="qapla-gaming-logo" transform="translate(198.000000, 903.000000)">
                    <g id="Group-24">
                        <g id="Group-11" transform="translate(36.000000, 3.037200)" fill="#0AFFD2">
                            <path d="M90.1046,32.8088 L90.1046,32.8088 C88.6956,32.8088 87.5526,31.6658 87.5526,30.2568 C87.5526,28.8478 88.6956,27.7058 90.1046,27.7058 C91.5126,27.7058 92.6556,28.8478 92.6556,30.2568 C92.6556,31.6658 91.5126,32.8088 90.1046,32.8088" id="Fill-1"></path>
                            <path d="M72.713,28.8333 C77.076,28.8333 80.53,25.3793 80.53,20.9713 C80.53,16.6063 77.076,13.1523 72.713,13.1523 C68.304,13.1523 64.85,16.6063 64.85,20.9713 C64.85,25.3793 68.304,28.8333 72.713,28.8333 M82.457,9.6073 L82.467,9.6073 C83.531,9.6073 84.394,10.4703 84.394,11.5343 L84.394,30.4523 C84.394,31.5163 83.531,32.3783 82.467,32.3783 L82.457,32.3783 C81.393,32.3783 80.53,31.5163 80.53,30.4523 L80.53,29.7413 C78.609,31.4183 76.279,32.5093 73.612,32.7093 C67.327,33.1823 61.649,28.4773 61.006,22.2083 C60.287,15.2003 65.755,9.2903 72.713,9.2903 C75.758,9.2903 78.395,10.4273 80.53,12.2893 L80.53,11.5343 C80.53,10.4703 81.393,9.6073 82.457,9.6073" id="Fill-3"></path>
                            <path d="M56.2345,0.6101 L56.2435,0.6101 C57.3075,0.6101 58.1715,1.4731 58.1715,2.5371 L58.1715,30.4531 C58.1715,31.5171 57.3075,32.3801 56.2435,32.3801 L56.2345,32.3801 C55.1715,32.3801 54.3075,31.5171 54.3075,30.4531 L54.3075,2.5371 C54.3075,1.4731 55.1715,0.6101 56.2345,0.6101" id="Fill-5"></path>
                            <path d="M39.7863,13.1521 C35.4213,13.1521 31.9673,16.6071 31.9673,21.0151 C31.9673,25.3801 35.4213,28.8341 39.7863,28.8341 C44.1943,28.8341 47.6483,25.3801 47.6483,21.0151 C47.6483,16.6071 44.1943,13.1521 39.7863,13.1521 M30.0313,9.6081 L30.0413,9.6081 C31.1043,9.6081 31.9673,10.4701 31.9673,11.5341 L31.9673,12.2451 C34.1893,10.2201 37.2153,9.0561 40.5793,9.2711 C46.0863,9.6241 50.6973,13.8981 51.4433,19.3641 C52.4253,26.5561 46.8793,32.6961 39.7863,32.6961 C36.7403,32.6961 34.0143,31.5611 31.9673,29.6961 L31.9673,39.7691 C31.9673,40.8341 31.1043,41.6961 30.0413,41.6961 L30.0313,41.6961 C28.9673,41.6961 28.1043,40.8341 28.1043,39.7691 L28.1043,11.5341 C28.1043,10.4701 28.9673,9.6081 30.0313,9.6081" id="Fill-7"></path>
                            <path d="M12.5871,28.7888 C16.9511,28.7888 20.4041,25.3338 20.4041,20.9258 C20.4041,16.5618 16.9511,13.1068 12.5871,13.1068 C8.1791,13.1068 4.7241,16.5618 4.7241,20.9258 C4.7241,25.3338 8.1791,28.7888 12.5871,28.7888 M22.3311,9.5628 L22.3421,9.5628 C23.4051,9.5628 24.2681,10.4258 24.2681,11.4898 L24.2681,30.4078 C24.2681,31.4718 23.4051,32.3338 22.3421,32.3338 L22.3311,32.3338 C21.2681,32.3338 20.4041,31.4718 20.4041,30.4078 L20.4041,29.6968 C18.4831,31.3738 16.1531,32.4638 13.4861,32.6648 C7.2021,33.1388 1.5241,28.4328 0.8811,22.1638 C0.1611,15.1548 5.6301,9.2448 12.5871,9.2448 C15.6321,9.2448 18.2701,10.3828 20.4041,12.2438 L20.4041,11.4898 C20.4041,10.4258 21.2681,9.5628 22.3311,9.5628" id="Fill-9"></path>
                        </g>
                        <g id="Group-14" transform="translate(17.000000, 18.037200)">
                            <mask id="mask-2" fill="white">
                                <use xlink:href="#path-1"></use>
                            </mask>
                            <g id="Clip-13"></g>
                            <path d="M12.797,0.382 C12.797,7.207 7.244,12.76 0.419,12.76 L0.419,12.76 L0.419,17.801 C10.023,17.801 17.838,9.987 17.838,0.382 L17.838,0.382 L12.797,0.382 Z" id="Fill-12" fill="url(#linearGradient-3)" mask="url(#mask-2)"></path>
                        </g>
                        <g id="Group-20" transform="translate(0.000000, 0.037200)">
                            <g id="Group-17">
                                <mask id="mask-5" fill="white">
                                    <use xlink:href="#path-4"></use>
                                </mask>
                                <g id="Clip-16"></g>
                                <path d="M17.4191,0.9626 C27.0231,0.9626 34.8371,8.7766 34.8371,18.3816 L29.7971,18.3816 C29.7971,11.5566 24.2441,6.0036 17.4191,6.0036 L17.4191,6.0046 C10.5931,6.0046 5.0411,11.5566 5.0411,18.3816 L5.0421,18.5866 C5.1521,25.3176 10.6611,30.7596 17.4191,30.7596 L31.5671,30.7596 C32.9601,30.7596 34.0891,31.8876 34.0891,33.2796 C34.0891,34.6716 32.9601,35.8006 31.5671,35.8006 L17.4191,35.8006 C7.8141,35.8006 0.0001,27.9866 0.0001,18.3816 C0.0001,8.7766 7.8141,0.9626 17.4191,0.9626" id="Fill-15" fill="#0AFFD2" mask="url(#mask-5)"></path>
                            </g>
                            <path d="M17.4191,25.0969 L17.4191,25.0969 C13.7101,25.0969 10.7041,22.0909 10.7041,18.3819 C10.7041,14.6739 13.7101,11.6669 17.4191,11.6669 C21.1271,11.6669 24.1341,14.6739 24.1341,18.3819 C24.1341,22.0909 21.1271,25.0969 17.4191,25.0969" id="Fill-18" fill="#22324F"></path>
                        </g>
                        <g id="Group-23" transform="translate(39.000000, 55.037200)">
                            <mask id="mask-7" fill="white">
                                <use xlink:href="#path-6"></use>
                            </mask>
                            <g id="Clip-22"></g>
                            <polygon id="Fill-21" fill="#FFFFFF" mask="url(#mask-7)" points="-3.037 16.999 49.421 16.999 49.421 -3.713 -3.037 -3.713"></polygon>
                        </g>
                    </g>
                </g>
            </g>
        </g>
    </g>
</svg>