<svg width="35" height="35" viewBox="0 0 35 35" fill="none" xmlns="http://www.w3.org/2000/svg">
<circle cx="17.5" cy="17.5002" r="16.8" fill="#D1D1D1"/>
<circle cx="17.5" cy="17.5" r="14" fill="url(#paint0_linear_1519_11627)"/>
<circle cx="17.5" cy="17.5" r="14" fill="white"/>
<path fill-rule="evenodd" clip-rule="evenodd" d="M26.0279 17.4599C26.0279 12.7352 22.1843 8.8916 17.4602 8.8916C12.7355 8.8916 8.89191 12.7352 8.89191 17.4599C8.89191 22.1845 12.7355 26.0281 17.4601 26.0281V26.0283C17.4797 26.0283 17.4991 26.0283 17.5186 26.0281H24.4195C25.1047 26.0281 25.66 25.4728 25.66 24.7881C25.66 24.1034 25.1047 23.5485 24.4195 23.5485H23.4831C25.0538 21.9945 26.0284 19.839 26.0284 17.4601H23.5488C23.5488 20.8008 20.844 23.5219 17.5094 23.5485H17.4602C14.136 23.5485 11.4261 20.8716 11.372 17.5607L11.3715 17.4599C11.3715 14.1027 14.1025 11.3717 17.4602 11.3717V11.3712C20.8173 11.3712 23.5488 14.1027 23.5488 17.4599H26.0279Z" fill="#130F26"/>
<path fill-rule="evenodd" clip-rule="evenodd" d="M17.4602 20.7628C15.6357 20.7628 14.1571 19.2842 14.1571 17.4598C14.1571 15.6359 15.6357 14.1567 17.4602 14.1567C19.2841 14.1567 20.7632 15.6359 20.7632 17.4598C20.7632 19.2842 19.2841 20.7628 17.4602 20.7628Z" fill="#130F26"/>
<path fill-rule="evenodd" clip-rule="evenodd" d="M17.4602 20.7628C15.6357 20.7628 14.1571 19.2842 14.1571 17.4598C14.1571 15.6359 15.6357 14.1567 17.4602 14.1567C19.2841 14.1567 20.7632 15.6359 20.7632 17.4598C20.7632 19.2842 19.2841 20.7628 17.4602 20.7628Z" fill="#130F26"/>
<defs>
<linearGradient id="paint0_linear_1519_11627" x1="3.38811" y1="3.38794" x2="31.6121" y2="31.6119" gradientUnits="userSpaceOnUse">
<stop stop-color="#20225C"/>
<stop offset="1" stop-color="#101133"/>
</linearGradient>
</defs>
</svg>
