<svg width="13" height="12" viewBox="0 0 13 12" fill="none" xmlns="http://www.w3.org/2000/svg">
<path fill-rule="evenodd" clip-rule="evenodd" d="M0.818359 6C0.818359 2.68812 3.486 0 6.81836 0C8.53223 0 9.79873 0.569934 10.678 1.22032C10.7114 0.777484 11.0813 0.428571 11.5326 0.428571C12.006 0.428571 12.3898 0.812327 12.3898 1.28571V3.42857C12.3898 3.90196 12.006 4.28571 11.5326 4.28571H9.38979C8.9164 4.28571 8.53265 3.90196 8.53265 3.42857C8.53265 2.95518 8.9164 2.57143 9.38979 2.57143H9.62166C8.99826 2.1199 8.09052 1.71429 6.81836 1.71429C4.43643 1.71429 2.53265 3.63124 2.53265 6C2.53265 6.47339 2.14889 6.85714 1.6755 6.85714C1.20212 6.85714 0.818359 6.47339 0.818359 6ZM11.9612 5.14286C12.4346 5.14286 12.8184 5.52661 12.8184 6C12.8184 9.31371 10.1321 12 6.81836 12C5.19184 12 3.86606 11.29 2.96122 10.604V10.7143C2.96122 11.1877 2.57746 11.5714 2.10407 11.5714C1.63069 11.5714 1.24693 11.1877 1.24693 10.7143V8.57143C1.24693 8.09804 1.63069 7.71429 2.10407 7.71429H4.24693C4.72032 7.71429 5.10407 8.09804 5.10407 8.57143C5.10407 9.03984 4.72834 9.4205 4.26182 9.42844C4.95708 9.90149 5.82879 10.2857 6.81836 10.2857C9.18529 10.2857 11.1041 8.36693 11.1041 6C11.1041 5.52661 11.4878 5.14286 11.9612 5.14286Z" fill="url(#paint0_linear_3498_9991)"/>
<defs>
<linearGradient id="paint0_linear_3498_9991" x1="12.3898" y1="0.428608" x2="0.818368" y2="12" gradientUnits="userSpaceOnUse">
<stop stop-color="#FFD4FB"/>
<stop offset="0.505208" stop-color="#FBB6FD"/>
<stop offset="1" stop-color="#F795FF"/>
</linearGradient>
</defs>
</svg>
