<svg width="16" height="16" viewBox="0 0 16 16" fill="none" xmlns="http://www.w3.org/2000/svg">
<path d="M7.36971 1.74677C7.60833 1.19378 8.39243 1.19378 8.63106 1.74677L10.1286 5.21691C10.2296 5.45106 10.452 5.60996 10.7063 5.62961L14.5465 5.92635C15.1626 5.97396 15.4075 6.74746 14.931 7.14092L12.043 9.52528C11.8392 9.6935 11.7501 9.96359 11.8135 10.22L12.7023 13.8114C12.8485 14.402 12.2113 14.877 11.687 14.5683L8.34888 12.6031C8.13381 12.4765 7.86702 12.4765 7.65195 12.6031L4.31377 14.5683C3.78946 14.877 3.15235 14.402 3.29852 13.8114L4.18732 10.22C4.25078 9.96359 4.16157 9.6935 3.95786 9.52528L1.06988 7.14092C0.593336 6.74746 0.838147 5.97396 1.45429 5.92635L5.2945 5.62961C5.54877 5.60996 5.77122 5.45106 5.87227 5.21691L7.36971 1.74677Z" fill="white"/>
</svg>
