<svg width="77" height="77" viewBox="0 0 77 77" fill="none" xmlns="http://www.w3.org/2000/svg">
<path fill-rule="evenodd" clip-rule="evenodd" d="M38.3333 76.6667C59.5042 76.6667 76.6667 59.5043 76.6667 38.3333C76.6667 17.1624 59.5042 0 38.3333 0C17.1624 0 0 17.1624 0 38.3333C0 59.5043 17.1624 76.6667 38.3333 76.6667ZM55.4145 31.2216C56.0488 30.1766 56.0605 28.8769 55.4376 27.8296C54.8146 26.7823 53.6751 26.1425 52.4586 26.1863L23.961 26.9489C22.6201 26.9945 21.4711 27.7783 20.9624 29.0153C20.9107 29.1423 20.8711 29.2902 20.8359 29.4216C20.5366 30.5386 20.8257 31.7077 21.659 32.5649L28.6534 39.8514C29.3677 40.5974 30.5021 40.7605 31.3963 40.2465L43.461 33.3183C44.0845 32.9748 44.8614 33.1829 45.2131 33.7878C45.5814 34.3971 45.3701 35.1856 44.7465 35.5291L32.6879 42.4413C31.7925 42.9532 31.3688 44.0123 31.6623 44.9995L34.5274 54.6252C34.8968 55.8651 36.2438 57.0993 37.5394 57.1965C38.8122 57.2928 39.9931 56.7007 40.6458 55.5938L55.4145 31.2216Z" fill="#00FFDD"/>
</svg>
