<svg width="78" height="78" viewBox="0 0 78 78" fill="none" xmlns="http://www.w3.org/2000/svg">
<path fill-rule="evenodd" clip-rule="evenodd" d="M39.0003 77.3332C60.1712 77.3332 77.3337 60.1708 77.3337 38.9998C77.3337 17.8289 60.1712 0.666504 39.0003 0.666504C17.8294 0.666504 0.666992 17.8289 0.666992 38.9998C0.666992 60.1708 17.8294 77.3332 39.0003 77.3332ZM36.8153 50.4615L55.0237 32.2532C56.327 30.9498 56.327 28.8415 55.0237 27.4998C53.7203 26.1965 51.5737 26.1965 50.2703 27.4998L34.4387 43.3315L27.7303 36.6232C26.427 35.3198 24.2803 35.3198 22.977 36.6232C21.6737 37.9265 21.6737 40.0348 22.977 41.3765L32.1003 50.4615C32.752 51.1132 33.5953 51.4198 34.4387 51.4198C35.3203 51.4198 36.1637 51.1132 36.8153 50.4615Z" fill="#00FFDD"/>
</svg>
