<svg width="30" height="31" viewBox="0 0 30 31" fill="none" xmlns="http://www.w3.org/2000/svg">
<g filter="url(#filter0_d_4031_37402)">
<path fill-rule="evenodd" clip-rule="evenodd" d="M15 22C20.5228 22 25 17.5228 25 12C25 6.47715 20.5228 2 15 2C9.47715 2 5 6.47715 5 12C5 17.5228 9.47715 22 15 22ZM14.43 14.99L19.18 10.24C19.52 9.9 19.52 9.35 19.18 9C18.84 8.66 18.28 8.66 17.94 9L13.81 13.13L12.06 11.38C11.72 11.04 11.16 11.04 10.82 11.38C10.48 11.72 10.48 12.27 10.82 12.62L13.2 14.99C13.37 15.16 13.59 15.24 13.81 15.24C14.04 15.24 14.26 15.16 14.43 14.99Z" fill="#00FFDD"/>
</g>
<defs>
<filter id="filter0_d_4031_37402" x="0" y="1" width="30" height="30" filterUnits="userSpaceOnUse" color-interpolation-filters="sRGB">
<feFlood flood-opacity="0" result="BackgroundImageFix"/>
<feColorMatrix in="SourceAlpha" type="matrix" values="0 0 0 0 0 0 0 0 0 0 0 0 0 0 0 0 0 0 127 0" result="hardAlpha"/>
<feOffset dy="4"/>
<feGaussianBlur stdDeviation="2.5"/>
<feColorMatrix type="matrix" values="0 0 0 0 0 0 0 0 0 0 0 0 0 0 0 0 0 0 0.14 0"/>
<feBlend mode="normal" in2="BackgroundImageFix" result="effect1_dropShadow_4031_37402"/>
<feBlend mode="normal" in="SourceGraphic" in2="effect1_dropShadow_4031_37402" result="shape"/>
</filter>
</defs>
</svg>
