<svg width="16" height="16" viewBox="0 0 16 16" fill="none" xmlns="http://www.w3.org/2000/svg">
<path fill-rule="evenodd" clip-rule="evenodd" d="M7.99967 14.6673C11.6816 14.6673 14.6663 11.6825 14.6663 8.00065C14.6663 4.31875 11.6816 1.33398 7.99967 1.33398C4.31778 1.33398 1.33301 4.31875 1.33301 8.00065C1.33301 11.6825 4.31778 14.6673 7.99967 14.6673ZM8.66634 4.66732C8.66634 4.29913 8.36786 4.00065 7.99967 4.00065C7.63148 4.00065 7.33301 4.29913 7.33301 4.66732V8.00065C7.33301 8.17746 7.40325 8.34703 7.52827 8.47206L9.19494 10.1387C9.45529 10.3991 9.8774 10.3991 10.1377 10.1387C10.3981 9.87837 10.3981 9.45626 10.1377 9.19591L8.66634 7.72451V4.66732Z" fill="#0D1021"/>
<path fill-rule="evenodd" clip-rule="evenodd" d="M3.13807 0.195262C3.39842 0.455612 3.39842 0.877722 3.13807 1.13807L1.13807 3.13807C0.877722 3.39842 0.455612 3.39842 0.195262 3.13807C-0.0650874 2.87772 -0.0650874 2.45561 0.195262 2.19526L2.19526 0.195262C2.45561 -0.0650874 2.87772 -0.0650874 3.13807 0.195262Z" fill="#0D1021"/>
<path fill-rule="evenodd" clip-rule="evenodd" d="M12.8619 0.195262C12.6016 0.455612 12.6016 0.877722 12.8619 1.13807L14.8619 3.13807C15.1223 3.39842 15.5444 3.39842 15.8047 3.13807C16.0651 2.87772 16.0651 2.45561 15.8047 2.19526L13.8047 0.195262C13.5444 -0.0650874 13.1223 -0.0650874 12.8619 0.195262Z" fill="#0D1021"/>
</svg>
