<svg width="35" height="28" viewBox="0 0 35 28" fill="none" xmlns="http://www.w3.org/2000/svg">
<path opacity="0.25" fill-rule="evenodd" clip-rule="evenodd" d="M3.69477 0.489325C2.00472 0.746476 0.665645 1.98488 0.375458 3.66957C0.173212 4.84372 0 6.33525 0 8C0 9.66475 0.173212 11.1563 0.375458 12.3304C0.624559 13.7766 1.64656 14.8939 3 15.344V18.7476C3 19.5219 3.84211 20.0024 4.50873 19.6085L10.6241 15.9949C12.8384 15.9586 14.8238 15.7361 16.3052 15.5107C17.9953 15.2535 19.3344 14.0151 19.6245 12.3304C19.8268 11.1563 20 9.66475 20 8C20 6.33525 19.8268 4.84372 19.6245 3.66957C19.3344 1.98488 17.9953 0.746476 16.3052 0.489325C14.6859 0.242933 12.4644 0 10 0C7.53559 0 5.31411 0.242933 3.69477 0.489325Z" fill="white"/>
<path d="M13.2 4.66667H10.8V3.83333C10.8 3.37272 10.4422 3 10 3C9.55781 3 9.2 3.37272 9.2 3.83333V4.66667H6.8C6.35781 4.66667 6 5.03939 6 5.5C6 5.96061 6.35781 6.33334 6.8 6.33334H7.01365C7.46885 7.85462 8.13739 9.04501 8.88757 9.98345C8.29989 10.5431 7.7248 11.0023 7.09995 11.5165C6.75547 11.8037 6.6992 12.3278 6.97579 12.6875C7.25109 13.0467 7.75616 13.105 8.09995 12.8169C8.77888 12.2587 9.36283 11.7916 10 11.1824C10.6372 11.7916 11.2211 12.2588 11.8999 12.8169C12.2438 13.105 12.7489 13.0467 13.0242 12.6875C13.3008 12.3278 13.2445 11.8037 12.8999 11.5165C12.2751 11.0023 11.7001 10.5431 11.1124 9.98345C11.8626 9.04506 12.5311 7.85467 12.9863 6.33334H13.2C13.6422 6.33334 14 5.96061 14 5.5C14 5.03939 13.6422 4.66667 13.2 4.66667ZM10 8.74817C9.49152 8.0824 9.03205 7.29989 8.68661 6.33334H11.3134C10.9679 7.29995 10.5085 8.0824 10 8.74817Z" fill="white"/>
<path fill-rule="evenodd" clip-rule="evenodd" d="M34.6245 11.6696C34.3344 9.98488 32.9953 8.74648 31.3052 8.48932C29.6859 8.24293 27.4644 8 25 8C22.5356 8 20.3141 8.24293 18.6948 8.48932C17.0047 8.74648 15.6656 9.98488 15.3755 11.6696C15.1732 12.8437 15 14.3353 15 16C15 17.6647 15.1732 19.1563 15.3755 20.3304C15.6656 22.0151 17.0047 23.2535 18.6948 23.5107C20.1762 23.7361 22.1616 23.9586 24.3759 23.9949L30.4913 27.6085C31.1579 28.0024 32 27.5219 32 26.7476V23.344C33.3534 22.8939 34.3754 21.7766 34.6245 20.3304C34.8268 19.1563 35 17.6647 35 16C35 14.3353 34.8268 12.8437 34.6245 11.6696ZM22.7705 20.3379C22.6064 20.8711 22.3467 21.0967 21.8887 21.0967C21.3486 21.0967 21 20.7822 21 20.2832C21 20.1465 21.0342 19.9551 21.1162 19.7432L23.9805 11.957C24.2197 11.3008 24.6162 11 25.2588 11C25.9082 11 26.3047 11.2871 26.5508 11.9502L29.4219 19.7432C29.5039 19.9688 29.5381 20.126 29.5381 20.2832C29.5381 20.7617 29.1689 21.0967 28.6562 21.0967C28.1777 21.0967 27.9111 20.8779 27.7539 20.3516L27.1045 18.4648H23.4199L22.7705 20.3379ZM25.2246 12.8594L23.8369 17.0703H26.6738L25.2725 12.8594H25.2246Z" fill="white"/>
</svg>
