<?xml version="1.0" encoding="UTF-8"?>
<svg width="20px" height="20px" viewBox="0 0 20 20" version="1.1" xmlns="http://www.w3.org/2000/svg" xmlns:xlink="http://www.w3.org/1999/xlink">
    <title>Arrow Left Square</title>
    <g id="Symbols" stroke="none" stroke-width="1" fill="none" fill-rule="evenodd">
        <g id="checkbox/empty" fill="#FFFFFF">
            <g id="Arrow-Left-Square">
                <path d="M10,2 C8.0478,2 6.24816,2.161 4.80371,2.35177 C3.50372,2.52346 2.52346,3.50372 2.35177,4.80371 C2.16101,6.24816 2,8.0478 2,10 C2,11.9522 2.161,13.7518 2.35177,15.1963 C2.52346,16.4963 3.50372,17.4765 4.80371,17.6482 C6.24816,17.839 8.0478,18 10,18 C11.9522,18 13.7518,17.839 15.1963,17.6482 C16.4963,17.4765 17.4765,16.4963 17.6482,15.1963 C17.839,13.7518 18,11.9522 18,10 C18,8.0478 17.839,6.24816 17.6482,4.80371 C17.4765,3.50372 16.4963,2.52346 15.1963,2.35177 C13.7518,2.16101 11.9522,2 10,2 Z M4.54184,0.36899 C2.34504,0.65912 0.65912,2.34504 0.36899,4.54184 C0.16953,6.05208 0,7.94127 0,10 C0,12.0587 0.16953,13.9479 0.36899,15.4582 C0.65912,17.655 2.34504,19.3409 4.54184,19.631 C6.05208,19.8305 7.94127,20 10,20 C12.0587,20 13.9479,19.8305 15.4582,19.631 C17.655,19.3409 19.3409,17.655 19.631,15.4582 C19.8305,13.9479 20,12.0587 20,10 C20,7.94127 19.8305,6.05208 19.631,4.54184 C19.3409,2.34504 17.655,0.65912 15.4582,0.36899 C13.9479,0.16953 12.0587,0 10,0 C7.94127,0 6.05208,0.16953 4.54184,0.36899 Z" id="Shape"></path>
            </g>
        </g>
    </g>
</svg>