<svg width="17" height="16" viewBox="0 0 17 16" fill="none" xmlns="http://www.w3.org/2000/svg">
<path fill-rule="evenodd" clip-rule="evenodd" d="M7.16683 3.33331H9.8335C10.7999 3.33331 11.4045 3.33487 11.86 3.37208C12.2921 3.40739 12.4112 3.46458 12.4388 3.47864C12.6897 3.60647 12.8937 3.81044 13.0215 4.06133C13.0356 4.08891 13.0927 4.20802 13.1281 4.64018C13.1653 5.09569 13.1668 5.70022 13.1668 6.66665V9.33331C13.1668 10.2997 13.1653 10.9043 13.1281 11.3598C13.0927 11.7919 13.0356 11.911 13.0215 11.9386C12.8937 12.1895 12.6897 12.3935 12.4388 12.5213C12.4112 12.5354 12.2921 12.5926 11.86 12.6279C11.4045 12.6651 10.7999 12.6666 9.8335 12.6666H7.16683C6.20041 12.6666 5.59587 12.6651 5.14037 12.6279C4.70821 12.5926 4.58909 12.5354 4.56151 12.5213C4.31063 12.3935 4.10665 12.1895 3.97882 11.9386C3.96477 11.911 3.90758 11.7919 3.87227 11.3598C3.83505 10.9043 3.8335 10.2997 3.8335 9.33331V6.66665C3.8335 5.70022 3.83505 5.09569 3.87227 4.64018C3.90758 4.20802 3.96477 4.08891 3.97882 4.06133C4.10665 3.81044 4.31063 3.60647 4.56151 3.47864C4.58909 3.46458 4.70821 3.40739 5.14037 3.37208C5.59587 3.33487 6.20041 3.33331 7.16683 3.33331ZM1.8335 6.66665C1.8335 4.7998 1.8335 3.86638 2.19681 3.15334C2.51639 2.52614 3.02632 2.0162 3.65353 1.69662C4.36657 1.33331 5.29999 1.33331 7.16683 1.33331H9.8335C11.7003 1.33331 12.6338 1.33331 13.3468 1.69662C13.974 2.0162 14.4839 2.52614 14.8035 3.15334C15.1668 3.86638 15.1668 4.7998 15.1668 6.66665V9.33331C15.1668 11.2002 15.1668 12.1336 14.8035 12.8466C14.4839 13.4738 13.974 13.9838 13.3468 14.3033C12.6338 14.6666 11.7003 14.6666 9.8335 14.6666H7.16683C5.29999 14.6666 4.36657 14.6666 3.65353 14.3033C3.02632 13.9838 2.51639 13.4738 2.19681 12.8466C1.8335 12.1336 1.8335 11.2002 1.8335 9.33331V6.66665ZM7.54385 5.33641C7.91924 5.30007 8.37547 5.58434 9.28795 6.15288L9.62176 6.36087C10.4895 6.90151 10.9233 7.17183 11.0705 7.52141C11.1989 7.82651 11.1989 8.17345 11.0705 8.47855C10.9233 8.82813 10.4895 9.09845 9.62177 9.63909L9.28795 9.84708C8.37548 10.4156 7.91924 10.6999 7.54385 10.6636C7.21652 10.6319 6.91788 10.4563 6.72331 10.1811C6.50016 9.86553 6.50016 9.31301 6.50016 8.20797V7.79199C6.50016 6.68695 6.50016 6.13443 6.72331 5.81886C6.91788 5.54368 7.21652 5.36809 7.54385 5.33641Z" fill="white"/>
</svg>
