<svg width="13" height="13" viewBox="0 0 13 13" fill="none" xmlns="http://www.w3.org/2000/svg">
<path fill-rule="evenodd" clip-rule="evenodd" d="M11.8031 11.7796C12.427 11.1576 12.427 10.1485 11.8031 9.5246L8.53707 6.25856L11.8031 2.99068C12.427 2.36868 12.427 1.34116 11.8031 0.717311C11.1793 0.0916255 10.1701 0.0916255 9.52789 0.717311L6.28021 3.9815L3.01417 0.717311C2.3719 0.0916255 1.36273 0.0916255 0.738883 0.717311C0.115034 1.34116 0.115034 2.36868 0.738883 2.99068L4.00499 6.25856L0.738883 9.50625C0.115034 10.1485 0.115034 11.1576 0.738883 11.7796C1.05081 12.0916 1.47282 12.2585 1.87649 12.2585C2.29851 12.2585 2.70225 12.0916 3.01417 11.7796L6.28021 8.53378L9.54624 11.7796C9.85817 12.1117 10.2618 12.2585 10.6655 12.2585C11.0875 12.2585 11.4912 12.0916 11.8031 11.7796Z" fill="#1D1F65"/>
</svg>
