<svg width="24" height="25" viewBox="0 0 24 25" fill="none" xmlns="http://www.w3.org/2000/svg">
<path d="M14.7498 6.48347C14.7498 3.68565 14.7498 2.28674 14.2267 1.71387C13.7739 1.21801 13.1024 0.982486 12.4391 1.08682C11.6727 1.20735 10.7988 2.29972 9.05102 4.48445L4.59856 10.05C3.26708 11.7144 2.60134 12.5465 2.60059 13.2469C2.59993 13.856 2.87686 14.4322 3.35288 14.8121C3.90024 15.2491 4.96594 15.2491 7.09734 15.2491H7.6498C8.20986 15.2491 8.48988 15.2491 8.7038 15.358C8.89196 15.4539 9.04494 15.6069 9.14081 15.7951C9.2498 16.009 9.2498 16.289 9.2498 16.8491V18.5146C9.2498 21.3125 9.2498 22.7114 9.77294 23.2842C10.2258 23.7801 10.8972 24.0156 11.5605 23.9113C12.3269 23.7908 13.2008 22.6984 14.9486 20.5137L19.4011 14.9481C20.7325 13.2837 21.3983 12.4516 21.399 11.7512C21.3997 11.1421 21.1228 10.5659 20.6467 10.186C20.0994 9.74905 19.0337 9.74905 16.9023 9.74905H16.3498C15.7898 9.74905 15.5097 9.74905 15.2958 9.64006C15.1077 9.54419 14.9547 9.39121 14.8588 9.20304C14.7498 8.98913 14.7498 8.70911 14.7498 8.14905V6.48347Z" fill="url(#paint0_linear_6091_49634)"/>
<defs>
<linearGradient id="paint0_linear_6091_49634" x1="3.5475" y1="21.6478" x2="21.4805" y2="4.59598" gradientUnits="userSpaceOnUse">
<stop stop-color="#ECC2FF"/>
<stop offset="1" stop-color="#94FFF9"/>
</linearGradient>
</defs>
</svg>
